<?xml version="1.0" standalone="no"?>
<!DOCTYPE svg PUBLIC "-//W3C//DTD SVG 1.1//EN" "http://www.w3.org/Graphics/SVG/1.1/DTD/svg11.dtd" >
<svg xmlns="http://www.w3.org/2000/svg">
<metadata>Generated by IcoMoon</metadata>
<defs>
<font id="wimi" horiz-adv-x="512">
<font-face units-per-em="512" ascent="480" descent="-32" />
<missing-glyph horiz-adv-x="512" />
<glyph unicode="&#x20;" horiz-adv-x="256" d="" />
<glyph unicode="&#xe600;" glyph-name="star" horiz-adv-x="476" d="M0 290.572q0 10.572 16 13.143l143.429 20.857 64.285 130q5.428 11.714 14 11.714t14-11.714l64.286-130 143.428-20.857q16-2.572 16-13.143 0-6.286-7.428-13.714l-103.714-101.143 24.572-142.857q0.286-2 0.286-5.714 0-6-3-10.143t-8.714-4.143q-5.428 0-11.428 3.428l-128.286 67.428-128.286-67.428q-6.285-3.428-11.428-3.428-6 0-9 4.143t-3 10.143q0 1.714 0.572 5.714l24.572 142.857-104 101.143q-7.143 7.714-7.143 13.714z" />
<glyph unicode="&#xe601;" glyph-name="publish" d="M460.8 460.8h-409.6c-28.16 0-51.2-23.040-51.2-51.2v-307.2c0-28.16 23.040-50.688 51.2-50.688h101.888v50.176h-102.4v236.032h410.624v-236.032h-102.4v-50.202h101.888c28.185 0 51.2 22.553 51.2 50.688v307.226c0 28.16-23.014 51.2-51.2 51.2zM66.585 375.552c-10.624 0-19.2 8.371-19.2 18.688s8.576 18.688 19.2 18.688c10.599 0 19.2-8.371 19.2-18.688s-8.602-18.688-19.2-18.688zM117.785 375.552c-10.624 0-19.2 8.371-19.2 18.688s8.576 18.688 19.2 18.688c10.598 0 19.2-8.371 19.2-18.688s-8.601-18.688-19.2-18.688zM461.337 378.368h-308.25v31.744h308.224v-31.744zM254.669 277.145l-124.211-123.443h76.8v-153.702h94.822v153.702h76.8l-124.211 123.443z" />
<glyph unicode="&#xe602;" glyph-name="logout" d="M440.816-32.149v63.966h-376.85v383.797h376.85v63.966h-440.816v-511.73h440.816zM383.797 95.784l127.933 127.933-127.933 127.933v-95.95h-255.865v-63.966h255.865v-95.95z" />
<glyph unicode="&#xe603;" glyph-name="login" d="M435.2 460.8h-230.4c-28.16 0-50.688-23.040-50.688-51.2v-76.8h50.688v76.8h230.4v-358.4h-230.4v51.2h-50.688v-51.2c0-28.16 22.528-51.2 50.688-51.2h230.4c28.16 0 51.2 23.040 51.2 51.2v358.4c0 28.16-23.040 51.2-51.2 51.2zM256 117.76l102.4 99.84-102.4 99.84v-61.44h-230.4v-76.8h230.4v-61.44z" />
<glyph unicode="&#xe604;" glyph-name="pencil" d="M423.962 398.387c-36.915 36.941-64.64 31.411-64.64 31.411l-277.146-277.146-25.856-121.933 121.933 25.856 277.12 277.12c0 0 5.555 27.725-31.411 64.691zM170.982 71.245l-41.549-8.96c-4.019 7.501-8.858 15.002-17.689 23.859-8.832 8.832-16.359 13.645-23.859 17.664l8.986 41.575 12.007 12.007c0 0 22.63-0.461 48.153-25.984 25.549-25.549 26.010-48.179 26.010-48.179l-12.058-11.981z" />
<glyph unicode="&#xe605;" glyph-name="cross" d="M367.334 149.709l-70.605 80.691 70.605 80.691c12.007 12.007 12.007 31.463 0 43.443s-31.462 11.981-43.443 0l-67.891-77.593-67.865 77.568c-12.006 12.006-31.463 12.006-43.443 0s-11.981-31.463 0-43.443l70.579-80.666-70.605-80.691c-11.981-12.007-11.981-31.411 0-43.392 12.006-12.007 31.463-12.007 43.443 0l67.891 77.543 67.865-77.543c12.007-12.007 31.462-12.007 43.443 0s12.007 31.385 0.026 43.392z" />
<glyph unicode="&#xe606;" glyph-name="download" d="M320 384h85.334q26.5 0 45.25-18.75t18.75-45.25v-298.666q0-26.5-18.75-45.25t-45.25-18.75h-298.666q-26.5 0-45.25 18.75t-18.75 45.25v298.666q0 26.5 18.75 45.25t45.25 18.75h85.334v-42.666h-85.334q-8.834 0-15.084-6.25t-6.25-15.084v-298.666q0-8.834 6.25-15.084t15.084-6.25h298.666q8.834 0 15.084 6.25t6.25 15.084v298.666q0 8.834-6.25 15.084t-15.084 6.25h-85.334v42.666zM256 469.333q8.834 0 15.084-6.25t6.25-15.083v-268.5l48.834 49q6.166 6.167 15.166 6.167 9.166 0 15.25-6.083t6.084-15.25q0-9-6.166-15.166l-85.334-85.334q-6.166-6.166-15.166-6.166t-15.166 6.166l-85.334 85.334q-6.167 6.5-6.167 15.166 0 8.834 6.25 15.084t15.083 6.25q9 0 15.166-6.167l48.834-49v268.5q0 8.834 6.25 15.084t15.084 6.25z" />
<glyph unicode="&#xe607;" glyph-name="gamepad" horiz-adv-x="549" d="M237.714 164.572v36.572q0 4-2.571 6.572t-6.571 2.572h-54.857v54.857q0 4-2.571 6.572t-6.572 2.571h-36.572q-4 0-6.572-2.571t-2.572-6.572v-54.857h-54.857q-4 0-6.572-2.572t-2.572-6.572v-36.572q0-4 2.572-6.572t6.572-2.572h54.857v-54.857q0-4 2.572-6.572t6.572-2.572h36.572q4 0 6.572 2.572t2.571 6.572v54.857h54.857q4 0 6.572 2.572t2.571 6.572zM402.286 146.286q0 15.143-10.714 25.857t-25.857 10.714-25.857-10.714-10.714-25.857 10.714-25.857 25.857-10.714 25.857 10.714 10.714 25.857zM475.428 219.429q0 15.143-10.714 25.857t-25.857 10.714-25.857-10.714-10.714-25.857 10.714-25.857 25.857-10.714 25.857 10.714 10.714 25.857zM548.572 182.857q0-60.572-42.857-103.428t-103.428-42.857q-54.857 0-96.572 36.572h-62.857q-41.715-36.572-96.571-36.572-60.572 0-103.428 42.857t-42.857 103.428 42.857 103.428 103.428 42.857h256q60.572 0 103.428-42.857t42.857-103.428z" />
<glyph unicode="&#xe608;" glyph-name="cog" d="M512 175.953v96.094l-73.387 12.231c-2.979 9.066-6.611 17.834-10.847 26.25l43.227 60.517-67.948 67.949-60.413-43.152c-8.455 4.277-17.269 7.944-26.384 10.951l-12.201 73.207h-96.094l-12.201-73.208c-9.115-3.007-17.929-6.674-26.383-10.951l-60.414 43.152-67.949-67.949 43.227-60.518c-4.235-8.415-7.867-17.183-10.846-26.249l-73.387-12.23v-96.094l73.559-12.26c2.98-8.984 6.605-17.674 10.821-26.015l-43.374-60.724 67.949-67.948 60.827 43.447c8.301-4.175 16.945-7.764 25.882-10.717l12.289-73.736h96.094l12.289 73.737c8.937 2.953 17.581 6.542 25.883 10.716l60.826-43.446 67.948 67.948-43.372 60.723c4.216 8.341 7.839 17.031 10.82 26.016l73.559 12.259zM256 160c-35.346 0-64 28.653-64 64s28.654 64 64 64c35.347 0 64-28.654 64-64s-28.653-64-64-64z" />
<glyph unicode="&#xe609;" glyph-name="wrench" d="M501.467 71.062l-230.276 197.38c10.724 20.149 16.809 43.141 16.809 67.558 0 79.529-64.471 144-144 144-14.547 0-28.586-2.166-41.823-6.177l83.195-83.195c12.445-12.445 12.445-32.81 0-45.255l-50.745-50.745c-12.445-12.445-32.81-12.445-45.255 0l-83.195 83.195c-4.011-13.237-6.177-27.276-6.177-41.823 0-79.529 64.471-144 144-144 24.417 0 47.409 6.085 67.558 16.81l197.38-230.276c11.454-13.362 31.008-14.113 43.452-1.669l50.746 50.746c12.444 12.444 11.693 31.997-1.669 43.451z" />
<glyph unicode="&#xe60a;" glyph-name="settings" d="M224 416v8c0 13.2-10.8 24-24 24h-80c-13.2 0-24-10.8-24-24v-8h-96v-64h96v-8c0-13.2 10.8-24 24-24h80c13.2 0 24 10.8 24 24v8h288v64h-288zM128 352v64h64v-64h-64zM416 264c0 13.2-10.8 24-24 24h-80c-13.2 0-24-10.8-24-24v-8h-288v-64h288v-8c0-13.2 10.8-24 24-24h80c13.2 0 24 10.8 24 24v8h96v64h-96v8zM320 192v64h64v-64h-64zM224 104c0 13.2-10.8 24-24 24h-80c-13.2 0-24-10.8-24-24v-8h-96v-64h96v-8c0-13.2 10.8-24 24-24h80c13.2 0 24 10.8 24 24v8h288v64h-288v8zM128 32v64h64v-64h-64z" />
<glyph unicode="&#xe60b;" glyph-name="box" d="M32.080 114.8l208.624-98.704v220.8l-208.624 88.32v-210.416zM96.096 243.344l80.416-37.392-0.464-29.472-80.4 37.376 0.448 29.488zM256 236.896v-220.8l207.904 98.704v210.416l-207.904-88.32zM247.248 431.904l-213.808-92.112 214-91.392 216.224 91.6-216.416 91.904z" />
<glyph unicode="&#xe60c;" glyph-name="remove" horiz-adv-x="403" d="M370.857 97.714q0-11.428-8-19.428l-38.857-38.857q-8-8-19.428-8t-19.428 8l-84 84-84-84q-8-8-19.428-8t-19.428 8l-38.857 38.857q-8 8-8 19.428t8 19.428l84 84-84 84q-8 8-8 19.428t8 19.428l38.857 38.857q8 8 19.428 8t19.428-8l84-84 84 84q8 8 19.428 8t19.428-8l38.857-38.857q8-8 8-19.428t-8-19.428l-84-84 84-84q8-8 8-19.428z" />
<glyph unicode="&#xe60d;" glyph-name="picture" horiz-adv-x="549" d="M182.857 310.857q0-22.857-16-38.857t-38.857-16-38.857 16-16 38.857 16 38.857 38.857 16 38.857-16 16-38.857zM475.428 201.143v-128h-402.286v54.857l91.428 91.428 45.714-45.714 146.286 146.286zM502.857 402.286h-457.143q-3.715 0-6.428-2.714t-2.715-6.428v-347.428q0-3.714 2.715-6.428t6.428-2.714h457.143q3.714 0 6.428 2.714t2.714 6.428v347.428q0 3.714-2.714 6.428t-6.428 2.714zM548.572 393.143v-347.428q0-18.857-13.428-32.286t-32.286-13.428h-457.143q-18.857 0-32.285 13.428t-13.428 32.286v347.428q0 18.857 13.428 32.286t32.285 13.428h457.143q18.857 0 32.286-13.428t13.428-32.286z" />
<glyph unicode="&#xe60e;" glyph-name="volume" horiz-adv-x="572" d="M378.72 310.672l-15.84-32.304c15.152-12.992 24.752-32.272 24.752-53.776 0-23.712-5.376-45.152-23.248-58.016l15.312-27.312c23.376 20.976 38.096 51.408 38.096 85.296-0.016 34.32-15.136 65.136-39.072 86.112zM496.288 423.792l-22.288-27.040c41.568-45.376 67.872-105.84 67.872-172.224 0-66.272-26.256-126.656-67.68-172.016l22.256-27.6c47.408 53.376 76.128 122.368 76.128 199.616-0.016 77.040-29.104 145.92-76.288 199.264zM437.152 368.544l-19.84-28.528c29.472-29.6 48.16-70.4 48.16-115.472 0-45.984-19.44-87.504-49.968-117.264l20.624-27.376c36.88 37.664 59.088 87.744 59.088 144.624 0 55.824-22.368 106.528-58.064 144.016zM0 287.888v-129.44c0-16.496 14.336-37.664 32-37.664h96.432v207.024h-96.432c-17.664 0-32-23.44-32-39.92zM277.456 422.096l-134.096-92.432v-212l134.096-93.44c17.664 0 43.008 13.376 43.008 29.872v338.128c0 16.496-25.344 29.872-43.008 29.872z" />
<glyph unicode="&#xe60f;" glyph-name="gamepad2" horiz-adv-x="527" d="M368.224 408.656c-22.656 0-66.656-32-104-32-37.328 0-84 32-104 32-137.328 0-216-369.312-113.328-369.312 86.672 0 98.336 108 216.992 108 96 0 152.336-106.688 216.336-106.688 102.656 0 25.344 368-112 368zM152.208 200.656c-39.76 0-72 32.256-72 72 0 39.76 32.24 72 72 72s72-32.24 72-72c0-39.744-32.224-72-72-72zM343.216 240.656c-8.848 0-16 7.152-16 16s7.152 16 16 16 16-7.152 16-16-7.152-16-16-16zM392.224 192.656c-8.848 0-16 7.152-16 16s7.152 16 16 16 16-7.152 16-16-7.168-16-16-16zM392.224 288.656c-8.848 0-16 7.152-16 16s7.152 16 16 16 16-7.152 16-16-7.168-16-16-16zM440.224 240.656c-8.848 0-16 7.152-16 16s7.152 16 16 16 16-7.152 16-16-7.168-16-16-16zM152.208 312.656c-22.080 0-40-17.904-40-40s17.92-40 40-40c22.096 0 40 17.904 40 40s-17.904 40-40 40z" />
<glyph unicode="&#xe610;" glyph-name="dot" d="M256 286.72c-31.104 0-56.32-25.216-56.32-56.32s25.216-56.32 56.32-56.32 56.32 25.216 56.32 56.32-25.216 56.32-56.32 56.32z" />
<glyph unicode="&#xe611;" glyph-name="resize-full" horiz-adv-x="439" d="M215.714 173.714q0-3.714-2.857-6.572l-94.857-94.857 41.143-41.143q5.429-5.428 5.429-12.857t-5.428-12.857-12.857-5.428h-128q-7.428 0-12.857 5.428t-5.428 12.857v128q0 7.428 5.428 12.857t12.857 5.428 12.857-5.428l41.143-41.143 94.857 94.857q2.857 2.857 6.572 2.857t6.572-2.857l32.572-32.572q2.857-2.857 2.857-6.572zM438.857 420.572v-128q0-7.428-5.428-12.857t-12.857-5.428-12.857 5.428l-41.143 41.143-94.857-94.857q-2.857-2.857-6.572-2.857t-6.572 2.857l-32.572 32.572q-2.857 2.857-2.857 6.572t2.857 6.572l94.857 94.857-41.143 41.143q-5.428 5.428-5.428 12.857t5.428 12.857 12.857 5.428h128q7.428 0 12.857-5.428t5.428-12.857z" />
<glyph unicode="&#xe612;" glyph-name="resize-small" horiz-adv-x="439" d="M219.429 201.143v-128q0-7.428-5.429-12.857t-12.857-5.428-12.857 5.428l-41.143 41.143-94.857-94.857q-2.857-2.857-6.572-2.857t-6.572 2.857l-32.572 32.572q-2.857 2.857-2.857 6.572t2.857 6.572l94.857 94.857-41.143 41.143q-5.428 5.428-5.428 12.857t5.428 12.857 12.857 5.428h128q7.428 0 12.857-5.428t5.429-12.857zM435.143 393.143q0-3.714-2.857-6.572l-94.857-94.857 41.143-41.143q5.428-5.428 5.428-12.857t-5.428-12.857-12.857-5.428h-128q-7.428 0-12.857 5.428t-5.429 12.857v128q0 7.428 5.428 12.857t12.857 5.428 12.857-5.428l41.143-41.143 94.857 94.857q2.857 2.857 6.572 2.857t6.572-2.857l32.572-32.572q2.857-2.857 2.857-6.572z" />
<glyph unicode="&#xe613;" glyph-name="trash" horiz-adv-x="403" d="M146.286 265.143v-164.571q0-4-2.571-6.572t-6.571-2.572h-18.285q-4 0-6.572 2.572t-2.572 6.572v164.571q0 4 2.572 6.572t6.572 2.571h18.285q4 0 6.572-2.571t2.571-6.572zM219.429 265.143v-164.571q0-4-2.571-6.572t-6.572-2.572h-18.286q-4 0-6.572 2.572t-2.571 6.572v164.571q0 4 2.571 6.572t6.572 2.571h18.286q4 0 6.572-2.571t2.571-6.572zM292.572 265.143v-164.571q0-4-2.572-6.572t-6.572-2.572h-18.286q-4 0-6.572 2.572t-2.571 6.572v164.571q0 4 2.571 6.572t6.572 2.571h18.286q4 0 6.572-2.571t2.572-6.572zM329.143 58.286v270.857h-256v-270.857q0-6.286 2-11.572t4.143-7.714 3-2.428h237.715q0.857 0 3 2.428t4.143 7.714 2 11.572zM137.143 365.714h128l-13.714 33.429q-2 2.571-4.857 3.143h-90.571q-2.857-0.572-4.857-3.143zM402.286 356.572v-18.285q0-4-2.572-6.572t-6.572-2.572h-27.428v-270.857q0-23.714-13.428-41t-32.286-17.286h-237.714q-18.857 0-32.285 16.714t-13.428 40.428v272h-27.428q-4 0-6.572 2.571t-2.571 6.572v18.286q0 4 2.571 6.571t6.572 2.572h88.285l20 47.714q4.285 10.572 15.429 18t22.572 7.428h91.428q11.428 0 22.572-7.428t15.428-18l20-47.714h88.286q4 0 6.572-2.572t2.572-6.571z" />
<glyph unicode="&#xe614;" glyph-name="arrow-left" d="M292.787 370.791c-10.701-10.445-115.251-120.218-115.251-120.218-5.709-5.581-8.55-12.877-8.55-20.173s2.841-14.592 8.55-20.173c0 0 104.551-109.773 115.251-120.192 10.701-10.445 29.952-11.161 41.37 0 11.392 11.136 12.288 26.675-0.026 40.32l-95.923 100.045 95.923 100.045c12.313 13.67 11.418 29.209 0.026 40.345-11.443 11.136-30.695 10.445-41.37 0z" />
<glyph unicode="&#xe615;" glyph-name="arrow-right" d="M219.213 370.791c10.701-10.445 115.251-120.218 115.251-120.218 5.735-5.581 8.576-12.877 8.576-20.173s-2.841-14.592-8.576-20.173c0 0-104.55-109.773-115.251-120.192-10.701-10.445-29.927-11.161-41.369 0-11.417 11.136-12.314 26.675 0 40.32l95.949 100.045-95.923 100.045c-12.314 13.67-11.417 29.209 0 40.345s30.669 10.445 41.344 0z" />
<glyph unicode="&#xe616;" glyph-name="shoppingcart" d="M484.5 416h-38l-61-297.5q-2.5-9.5-10.75-16t-17.25-6.5h-273.5q-9.5 0-17.75 6.5t-10.75 16l-49 188.5q-5 18 1.5 31.5t20 13.5l354.5 61.5 9 44.5q2.5 9 10.75 15.5t17.25 6.5h65q13.5 0 22.75-9.25t9.25-22.5-9.5-22.75-22.5-9.5zM148.5 64q20 0 34-14t14-34-14-34-34-14-34 14-14 34 14 34 34 14zM308.5 64q20 0 34-14t14-34-14-34-34-14-34 14-14 34 14 34 34 14z" />
<glyph unicode="&#xe617;" glyph-name="volume-medium" d="M359.765 64.235c-6.143 0-12.284 2.343-16.971 7.029-9.372 9.372-9.372 24.568 0 33.941 65.503 65.503 65.503 172.085 0 237.588-9.372 9.373-9.372 24.569 0 33.941 9.372 9.371 24.569 9.372 33.941 0 40.797-40.796 63.265-95.038 63.265-152.734s-22.468-111.938-63.265-152.735c-4.686-4.687-10.828-7.030-16.97-7.030zM274.51 109.49c-6.143 0-12.284 2.343-16.971 7.029-9.373 9.373-9.373 24.568 0 33.941 40.55 40.55 40.55 106.529 0 147.078-9.373 9.373-9.373 24.569 0 33.941s24.568 9.372 33.941 0c59.265-59.265 59.265-155.696 0-214.961-4.686-4.685-10.828-7.028-16.97-7.028zM200.666 440.666c12.834 12.834 23.334 8.484 23.334-9.666v-414c0-18.15-10.5-22.499-23.334-9.665l-120.666 120.665h-80v192h80l120.666 120.666z" />
<glyph unicode="&#xe618;" glyph-name="play" d="M256 480c-141.385 0-256-114.615-256-256s114.615-256 256-256 256 114.615 256 256-114.615 256-256 256zM256 16c-114.875 0-208 93.125-208 208s93.125 208 208 208 208-93.125 208-208-93.125-208-208-208zM192 336l192-112-192-112z" />
<glyph unicode="&#xe619;" glyph-name="folder-open-alt" horiz-adv-x="549" d="M508.857 209.429q0 10-15.143 10h-310.857q-11.428 0-24.428-6.143t-20.428-15l-84-103.714q-5.143-6.857-5.143-11.428 0-10 15.143-10h310.857q11.428 0 24.572 6.286t20.286 15.143l84 103.714q5.143 6.286 5.143 11.143zM182.857 256h219.429v45.715q0 11.428-8 19.428t-19.428 8h-164.571q-11.429 0-19.429 8t-8 19.428v18.286q0 11.428-8 19.428t-19.428 8h-91.428q-11.428 0-19.428-8t-8-19.428v-243.714l73.143 90q12.572 15.143 33.143 25t40 9.857zM545.428 209.429q0-17.714-13.143-34.286l-84.286-103.714q-12.286-15.143-33.143-25t-40-9.857h-310.857q-26.285 0-45.143 18.857t-18.857 45.143v274.286q0 26.286 18.857 45.143t45.143 18.857h91.428q26.286 0 45.143-18.857t18.857-45.143v-9.143h155.429q26.286 0 45.143-18.857t18.857-45.143v-45.714h54.857q15.428 0 28.285-7t19.143-20.143q4.285-9.143 4.285-19.428z" />
<glyph unicode="&#xe61a;" glyph-name="uniF659" d="M503.5 104.5h-17q-3.5 0-6 2.5t-2.5 6v17q0 3.5 2.5 6t6 2.5h17q3.5 0 6-2.5t2.5-6v-17q0-3.5-2.5-6t-6-2.5zM503.5 309.5h-17q-3.5 0-6 2.5t-2.5 6v17q0 3.5 2.5 6t6 2.5h17q3.5 0 6-2.5t2.5-6v-17q0-3.5-2.5-6t-6-2.5zM435 104.5h-17q-3.5 0-6 2.5t-2.5 6v17q0 3.5 2.5 6t6 2.5h17q3.5 0 6-2.5t2.5-6v-17q0-3.5-2.5-6t-6-2.5zM435 309.5h-17q-3.5 0-6 2.5t-2.5 6v17q0 3.5 2.5 6t6 2.5h17q3.5 0 6-2.5t2.5-6v-17q0-3.5-2.5-6t-6-2.5zM367-32h-17q-3.5 0-6 2.5t-2.5 6v17q0 3.5 2.5 6t6 2.5h17q3.5 0 6-2.5t2.5-6v-17q0-3.5-2.5-6t-6-2.5zM367 36.5h-17q-3.5 0-6 2.5t-2.5 6v17q0 3.5 2.5 6t6 2.5h17q3.5 0 6-2.5t2.5-6v-17q0-3.5-2.5-6t-6-2.5zM367 104.5h-222q-3.5 0-6 2.5t-2.5 6v222q0 3.5 2.5 6t6 2.5h222q3.5 0 6-2.5t2.5-6v-222q0-3.5-2.5-6t-6-2.5zM341.5 309.5h-171v-171h171v171zM367 377.5h-17q-3.5 0-6 2.5t-2.5 6v17q0 3.5 2.5 6t6 2.5h17q3.5 0 6-2.5t2.5-6v-17q0-3.5-2.5-6t-6-2.5zM367 446h-17q-3.5 0-6 2.5t-2.5 6v17q0 3.5 2.5 6t6 2.5h17q3.5 0 6-2.5t2.5-6v-17q0-3.5-2.5-6t-6-2.5zM162 377.5h-17q-3.5 0-6 2.5t-2.5 6v17q0 3.5 2.5 6t6 2.5h17q3.5 0 6-2.5t2.5-6v-17q0-3.5-2.5-6t-6-2.5zM162 446h-17q-3.5 0-6 2.5t-2.5 6v17q0 3.5 2.5 6t6 2.5h17q3.5 0 6-2.5t2.5-6v-17q0-3.5-2.5-6t-6-2.5zM94 104.5h-17q-3.5 0-6 2.5t-2.5 6v17q0 3.5 2.5 6t6 2.5h17q3.5 0 6-2.5t2.5-6v-17q0-3.5-2.5-6t-6-2.5zM94 309.5h-17q-3.5 0-6 2.5t-2.5 6v17q0 3.5 2.5 6t6 2.5h17q3.5 0 6-2.5t2.5-6v-17q0-3.5-2.5-6t-6-2.5zM25.5 104.5h-17q-3.5 0-6 2.5t-2.5 6v17q0 3.5 2.5 6t6 2.5h17q3.5 0 6-2.5t2.5-6v-17q0-3.5-2.5-6t-6-2.5zM25.5 309.5h-17q-3.5 0-6 2.5t-2.5 6v17q0 3.5 2.5 6t6 2.5h17q3.5 0 6-2.5t2.5-6v-17q0-3.5-2.5-6t-6-2.5zM145 70.5h17q3.5 0 6-2.5t2.5-6v-17q0-3.5-2.5-6t-6-2.5h-17q-3.5 0-6 2.5t-2.5 6v17q0 3.5 2.5 6t6 2.5zM145 2h17q3.5 0 6-2.5t2.5-6v-17q0-3.5-2.5-6t-6-2.5h-17q-3.5 0-6 2.5t-2.5 6v17q0 3.5 2.5 6t6 2.5z" />
<glyph unicode="&#xe61b;" glyph-name="uniF688" d="M496 0h-400v-16q0-6.5-4.75-11.25t-11.25-4.75h-64q-6.5 0-11.25 4.75t-4.75 11.25v64q0 6.5 4.75 11.25t11.25 4.75h64q6.5 0 11.25-4.75t4.75-11.25v-16h400q6.5 0 11.25-4.75t4.75-11.25-4.75-11.25-11.25-4.75zM64 24q0 3.5-2.25 5.75t-5.75 2.25h-16q-3.5 0-5.75-2.25t-2.25-5.75v-16q0-3.5 2.25-5.75t5.75-2.25h16q3.5 0 5.75 2.25t2.25 5.75v16zM447.75 352.5q-13.25 0-22.5 9.5t-9.25 23-24.75 22.5-70.75 9l-0.5 0.5q-13.5 0-22.5-9.5t-9-23v-224q0-13.5 9-22.75t22.25-9.25 22.75-9.5 9.5-22.75-9.5-22.5-22.5-9.25h-128q-13.5 0-22.75 9.25t-9.25 22.5 9.25 22.75 22.5 9.5 22.75 9.25 9.5 22.75l0.5 224q0 13.5-9.5 22.75t-22.5 9.25l-0.5 0.5q-46.5 0-71.25-9.25t-24.75-22.75-9.5-23-22.75-9.5-22.5 9.5-9.25 23v64q0 13 9.25 22.5t22.75 9.5h384q13 0 22.5-9.5t9.5-22.5v-64q0-13.5-9.5-23t-22.75-9.5z" />
<glyph unicode="&#xe61c;" glyph-name="uniF61A" d="M497 33.5q-64.5 31.5-113 45.5v290.5q48.5 14 113 45 6 3.5 10.5 0.75t4.5-9.25v-363.5q0-7-4.5-9.5t-10.5 0.5zM352 86.5q-46 9.5-96 9.5-49.5 0-96-9.5v275.5q46.5-10 96-10 50 0 96 9.5v-275zM0 42.5v363.5q0 6.5 4.5 9.25t10.5-0.75q64.5-31 113-45v-290.5q-48.5-14-113-45.5-6-3-10.5-0.5t-4.5 9.5z" />
<glyph unicode="&#xe61d;" glyph-name="uniF4F3" d="M256-32q-52 0-99.5 20.25t-81.75 54.5-54.5 81.75-20.25 99.5 20.25 99.5 54.5 81.75 81.75 54.5 99.5 20.25 99.5-20.25 81.75-54.5 54.5-81.75 20.25-99.5-20.25-99.5-54.5-81.75-81.75-54.5-99.5-20.25zM146.5 333.5l-24 21q-5.5 0-13-1.25t-13.5-1.25q-0.5 0.5-9 18.5-55-63.5-55-146.5 0-1.5 0.25-4t0.25-3.5q3-3 14.75-11.25t16.75-13.25h32q1.5 1 2.75 1.5t2.75 1q-5 5.5-14.75 16.25t-14.75 15.75q2 11.5 5.5 34.75t5 34.75q43 18 64 26.5v11zM247 415q-7 3-13 5.5-1.5 4-2 6-3-9.5-9.5-28.5 2-0.5 5.75-1t5.75-1h13v19zM245 179.5q-2.5-2.5-3.5-4-6-10.5-17-32t-16.5-32q7-10.5 21.25-32t21.25-32q65-4 98.5-6 1-12.5 8-17 45.5 23 77 63.75t41.5 91.25q-9.5 2-20.75 5.5t-16.25 4.75-19.75 2.5-30.75-1.75q-6-0.5-7.75 7.75t-1.75 17-2 9.25q-11 2-44.5-3.75t-44.5-3.75q-6.5-6-42.5-37.5zM274.5 430q-1.5-10-5.25-30t-5.75-30.5q2.5 0.5 8.25 1.25t8.25 0.75q-1.5 1-3.5 2 7.5 2.5 11 4-8.5 35-13 52.5zM332.5 434.5q-1-5.5-1-15.5t-5-26.5q0.5-1 2-2 10 1 33.5 3.5 0 10.5 10.5 21-19 11.5-40 19.5zM395 399.5q-1-2-3.5-5.5 9.5-1.5 12.5-2.5-6 5.5-9 8zM408.5 387.5q-1.5-3-4.75-9t-4.75-9q-14.5-0.5-39-1.5l-2 17q-1-0.5-3.5-1.25t-4-0.75v-24.5q-10.5-1-32.25-3t-32.25-3q-3.5-5-7.5-11 13.5-29 20.5-43.5-10-2.5-41-11v-17q0-1 0.75-3t1.25-3q8.5-4 26.5-12t27-12.5l11 13.5q-0.5 5-2.5 15.75t-3 16.25q1.5 1 4.75 2.75t4.75 2.75q13.5 4 20.5 5.5 6.5-10.5 18.25-30t14.75-24.5q4.5 4 12.5 12.25t12 12.25q-27 19-35.5 24.5 0.5 4 2 11.5h18.5q28-24 57.5-49 0.5 0 1 0.75t1 0.75q-2 4-13 24.5 0 0.5 1.5 2l2 2h20.5q0.5 0.5 8.5 4.5-17 58-62 100z" />
<glyph unicode="&#xe61e;" glyph-name="stack" d="M512 320l-256 128-256-128 256-128 256 128zM256 405.515l171.029-85.515-171.029-85.515-171.029 85.515 171.029 85.515zM460.722 249.639l51.278-25.639-256-128-256 128 51.278 25.639 204.722-102.361zM460.722 153.639l51.278-25.639-256-128-256 128 51.278 25.639 204.722-102.361z" />
<glyph unicode="&#xe61f;" glyph-name="square" d="M448 96v-64h-64v16h-96v-16h-64v16h-96v-16h-64v64h16v96h-16v64h16v96h-16v64h64v-16h96v16h64v-16h96v16h64v-64h-16v-96h16v-64h-16v-96h16zM240 48h32v32h-32v-32zM80 48h32v32h-32v-32zM80 208h32v32h-32v-32zM112 400h-32v-32h32v32zM272 400h-32v-32h32v32zM384 368h-96v-16h-64v16h-96v-16h-16v-96h16v-64h-16v-96h16v-16h96v16h64v-16h96v16h16v96h-16v64h16v96h-16v16zM432 400h-32v-32h32v32zM432 240h-32v-32h32v32zM400 80v-32h32v32h-32z" />
<glyph unicode="&#xe620;" glyph-name="badget" d="M363.853 195.785c-14.74-11.126-31.933-20.024-50.821-26.050 1.116 0.481 2.227 0.978 3.328 1.485 0.031 0.015 0.062 0.031 0.098 0.046 50.069 23.142 84.813 73.794 84.813 132.577 0 80.625-65.362 145.986-145.987 145.986s-145.992-65.362-145.992-145.986c0-57.549 33.305-107.315 81.69-131.092l0.005-0.005c1.075-0.527 2.155-1.045 3.241-1.541 0 0 0.005 0 0.005 0 1.090-0.502 2.186-0.993 3.292-1.469-18.422 5.878-35.221 14.5-49.715 25.247l-66.273-156.078 77.665 19.763 39.588-69.637 74.219 174.802-13.327-48.804 53.529-125.998 39.593 69.637 77.666-19.763-66.616 156.882zM255.283 418.837c63.508 0 114.995-51.487 114.995-114.995s-51.486-114.995-114.995-114.995c-63.508 0-114.995 51.486-114.995 114.995s51.481 114.995 114.995 114.995zM217.713 294.027l5.34-5.258-5.545 4.112-8.653-50.509 56.77 29.824-8.606-6.298 44.688-23.526-8.863 51.697 0.031 0.030-1.209 7.235 1.822-6.595 36.91 35.938-51.906 7.542-19.676 3.097 18.309-0.322-21.842 44.263-23.214-47.038-51.906-7.542 37.56-36.608z" />
<glyph unicode="&#xe621;" glyph-name="caret-down" horiz-adv-x="293" d="M292.572 274.286q0-7.428-5.428-12.857l-128-128q-5.428-5.428-12.857-5.428t-12.857 5.428l-128 128q-5.428 5.428-5.428 12.857t5.428 12.857 12.857 5.428h256q7.428 0 12.857-5.428t5.428-12.857z" />
<glyph unicode="&#xe622;" glyph-name="caret-up" horiz-adv-x="293" d="M292.572 128q0-7.428-5.428-12.857t-12.857-5.428h-256q-7.428 0-12.857 5.428t-5.428 12.857 5.428 12.857l128 128q5.429 5.428 12.857 5.428t12.857-5.428l128-128q5.428-5.428 5.428-12.857z" />
<glyph unicode="&#xe623;" glyph-name="caret-left" horiz-adv-x="183" d="M182.857 347.429v-256q0-7.428-5.429-12.857t-12.857-5.428-12.857 5.428l-128 128q-5.428 5.428-5.428 12.857t5.428 12.857l128 128q5.428 5.428 12.857 5.428t12.857-5.428 5.428-12.857z" />
<glyph unicode="&#xe624;" glyph-name="caret-right" horiz-adv-x="183" d="M164.571 219.429q0-7.428-5.429-12.857l-128-128q-5.428-5.428-12.857-5.428t-12.857 5.428-5.428 12.857v256q0 7.428 5.428 12.857t12.857 5.428 12.857-5.428l128-128q5.428-5.428 5.428-12.857z" />
<glyph unicode="&#xe625;" glyph-name="oneup" d="M448 96v-32q0-42-25-69t-71-27h-192q-46 0-71 27t-25 69v32q-24 0-44 20t-20 44v64q0 52 20.25 99.5t54.5 81.75 81.75 54.5 99.5 20.25 99.5-20.25 81.75-54.5 54.5-81.75 20.25-99.5v-64q0-24-20-44t-44-20zM96 64q0-26.5 18.75-45.25t45.25-18.75h192q26.5 0 45.25 18.75t18.75 45.25v35h-1q-3.5 11-25.75 20t-37.25 9h-32v-48q0-6.5-4.75-11.25t-11.25-4.75-11.25 4.75-4.75 11.25v48h-64v-48q0-6.5-4.75-11.25t-11.25-4.75-11.25 4.75-4.75 11.25v48h-32q-15 0-37.5-9t-25.5-20h-1v-35zM73.5 351q-41.5-59-41.5-127v-21q15-11 32-11 26.5 0 45.25 23.5t18.75 56.5q0 30-15.75 52.25t-38.75 26.75zM223 445q-66-10-116.5-56.5 8.5-17 22.75-26.75t30.75-9.75q26.5 0 45.25 23.5t18.75 56.5q0 5.5-1 13zM160 240q0-33 28-56.5t68-23.5 68 23.5 28 56.5-28 56.5-68 23.5-68-23.5-28-56.5zM289 445q-1-7.5-1-13 0-33 18.75-56.5t45.25-23.5q16.5 0 30.75 9.75t22.75 26.75q-50.5 46.5-116.5 56.5zM480 224q0 68-41.5 127-23-4.5-38.75-26.75t-15.75-52.25q0-33 18.75-56.5t45.25-23.5q16.5 0 32 11v21z" />
<glyph unicode="&#xe626;" glyph-name="transform" d="M496 64q6.5 0 11.25-4.75t4.75-11.25v-64q0-6.5-4.75-11.25t-11.25-4.75h-64q-6.5 0-11.25 4.75t-4.75 11.25v16h-96v-16q0-6.5-4.75-11.25t-11.25-4.75h-64q-6.5 0-11.25 4.75t-4.75 11.25v16h-96v-16q0-6.5-4.75-11.25t-11.25-4.75h-64q-6.5 0-11.25 4.75t-4.75 11.25v64q0 6.5 4.75 11.25t11.25 4.75h16v96h-16q-6.5 0-11.25 4.75t-4.75 11.25v64q0 6.5 4.75 11.25t11.25 4.75h16v96h-16q-6.5 0-11.25 4.75t-4.75 11.25v64q0 6.5 4.75 11.25t11.25 4.75h64q6.5 0 11.25-4.75t4.75-11.25v-16h96v16q0 6.5 4.75 11.25t11.25 4.75h64q6.5 0 11.25-4.75t4.75-11.25v-16h96v16q0 6.5 4.75 11.25t11.25 4.75h64q6.5 0 11.25-4.75t4.75-11.25v-64q0-6.5-4.75-11.25t-11.25-4.75h-16v-96h16q6.5 0 11.25-4.75t4.75-11.25v-64q0-6.5-4.75-11.25t-11.25-4.75h-16v-96h16zM256 8q0-3.5 2.25-5.75t5.75-2.25h16q3.5 0 5.75 2.25t2.25 5.75v16q0 3.5-2.25 5.75t-5.75 2.25h-16q-3.5 0-5.75-2.25t-2.25-5.75v-16zM64 8q0-3.5 2.25-5.75t5.75-2.25h16q3.5 0 5.75 2.25t2.25 5.75v16q0 3.5-2.25 5.75t-5.75 2.25h-16q-3.5 0-5.75-2.25t-2.25-5.75v-16zM64 200q0-3.5 2.25-5.75t5.75-2.25h16q3.5 0 5.75 2.25t2.25 5.75v16q0 3.5-2.25 5.75t-5.75 2.25h-16q-3.5 0-5.75-2.25t-2.25-5.75v-16zM96 408q0 3.5-2.25 5.75t-5.75 2.25h-16q-3.5 0-5.75-2.25t-2.25-5.75v-16q0-3.5 2.25-5.75t5.75-2.25h16q3.5 0 5.75 2.25t2.25 5.75v16zM288 408q0 3.5-2.25 5.75t-5.75 2.25h-16q-3.5 0-5.75-2.25t-2.25-5.75v-16q0-3.5 2.25-5.75t5.75-2.25h16q3.5 0 5.75 2.25t2.25 5.75v16zM416 368v16h-96v-16q0-6.5-4.75-11.25t-11.25-4.75h-64q-6.5 0-11.25 4.75t-4.75 11.25v16h-96v-16q0-6.5-4.75-11.25t-11.25-4.75h-16v-96h16q6.5 0 11.25-4.75t4.75-11.25v-64q0-6.5-4.75-11.25t-11.25-4.75h-16v-96h16q6.5 0 11.25-4.75t4.75-11.25v-16h96v16q0 6.5 4.75 11.25t11.25 4.75h64q6.5 0 11.25-4.75t4.75-11.25v-16h96v16q0 6.5 4.75 11.25t11.25 4.75h16v96h-16q-6.5 0-11.25 4.75t-4.75 11.25v64q0 6.5 4.75 11.25t11.25 4.75h16v96h-16q-6.5 0-11.25 4.75t-4.75 11.25zM480 408q0 3.5-2.25 5.75t-5.75 2.25h-16q-3.5 0-5.75-2.25t-2.25-5.75v-16q0-3.5 2.25-5.75t5.75-2.25h16q3.5 0 5.75 2.25t2.25 5.75v16zM480 216q0 3.5-2.25 5.75t-5.75 2.25h-16q-3.5 0-5.75-2.25t-2.25-5.75v-16q0-3.5 2.25-5.75t5.75-2.25h16q3.5 0 5.75 2.25t2.25 5.75v16zM472 32h-16q-3.5 0-5.75-2.25t-2.25-5.75v-16q0-3.5 2.25-5.75t5.75-2.25h16q3.5 0 5.75 2.25t2.25 5.75v16q0 3.5-2.25 5.75t-5.75 2.25zM280 192h-16q-3.5 0-5.75 2.25t-2.25 5.75v16q0 3.5 2.25 5.75t5.75 2.25h16q3.5 0 5.75-2.25t2.25-5.75v-16q0-3.5-2.25-5.75t-5.75-2.25z" />
<glyph unicode="&#xe627;" glyph-name="insertpicture" d="M496 64q6.5 0 11.25-4.75t4.75-11.25v-64q0-6.5-4.75-11.25t-11.25-4.75h-64q-6.5 0-11.25 4.75t-4.75 11.25v16h-320v-16q0-6.5-4.75-11.25t-11.25-4.75h-64q-6.5 0-11.25 4.75t-4.75 11.25v64q0 6.5 4.75 11.25t11.25 4.75h16v320h-16q-6.5 0-11.25 4.75t-4.75 11.25v64q0 6.5 4.75 11.25t11.25 4.75h64q6.5 0 11.25-4.75t4.75-11.25v-16h320v16q0 6.5 4.75 11.25t11.25 4.75h64q6.5 0 11.25-4.75t4.75-11.25v-64q0-6.5-4.75-11.25t-11.25-4.75h-16v-320h16zM32 8q0-3.5 2.25-5.75t5.75-2.25h16q3.5 0 5.75 2.25t2.25 5.75v16q0 3.5-2.25 5.75t-5.75 2.25h-16q-3.5 0-5.75-2.25t-2.25-5.75v-16zM64 440q0 3.5-2.25 5.75t-5.75 2.25h-16q-3.5 0-5.75-2.25t-2.25-5.75v-16q0-3.5 2.25-5.75t5.75-2.25h16q3.5 0 5.75 2.25t2.25 5.75v16zM416 400v16h-320v-16q0-6.5-4.75-11.25t-11.25-4.75h-16v-320h16q6.5 0 11.25-4.75t4.75-11.25v-16h320v16q0 6.5 4.75 11.25t11.25 4.75h16v320h-16q-6.5 0-11.25 4.75t-4.75 11.25zM480 440q0 3.5-2.25 5.75t-5.75 2.25h-16q-3.5 0-5.75-2.25t-2.25-5.75v-16q0-3.5 2.25-5.75t5.75-2.25h16q3.5 0 5.75 2.25t2.25 5.75v16zM472 32h-16q-3.5 0-5.75-2.25t-2.25-5.75v-16q0-3.5 2.25-5.75t5.75-2.25h16q3.5 0 5.75 2.25t2.25 5.75v16q0 3.5-2.25 5.75t-5.75 2.25zM238.5 172.5l74.5 75q9 9 23.25 9t23.25-9l24.5-24.5v-127h-70zM176 256q-20 0-34 14t-14 34 14 34 34 14 34-14 14-34-14-34-34-14zM183.5 183l86.5-87h-142v78l9 9q9 9.5 23.25 9.5t23.25-9.5z" />
<glyph unicode="&#xe628;" glyph-name="king" horiz-adv-x="768" d="M760.442 296.977c15.595 27.52 6.581 63.447-20.94 79.023-28.148 16.166-63.484 6.562-79.078-20.959-14.36-24.534-8.35-56.313 12.609-73.659-47.927-40.719-194.636-165.29-195.815-165.29l-86.839 243.742c30.544 1.807 53.917 26.931 53.917 57.475 0 31.76-25.751 58.12-58.709 58.12h-2.986c-32.313 0-58.673-26.36-58.673-58.102 0-30.544 23.337-55.686 53.88-57.474l-86.82-243.742c-0.608 0-147.299 124.572-196.405 165.291 22.156 17.346 28.166 49.125 13.751 73.659-16.166 27.521-51.484 37.106-79.632 20.94-26.95-15.558-37.124-51.502-20.959-79.023 15.576-26.36 48.516-36.553 76.645-22.765l53.88-310.784h492.24l53.899 310.784c27.558-13.788 60.48-3.576 76.037 22.765z" />
<glyph unicode="&#xe629;" glyph-name="minus" d="M389.094 256h-266.214c-14.157 0-15.36-11.469-15.36-25.6s1.203-25.6 15.36-25.6h266.214c14.157 0 15.385 11.469 15.385 25.6s-1.229 25.6-15.385 25.6z" />
<glyph unicode="&#xe62a;" glyph-name="plus" d="M389.094 256h-107.52v107.52c0 14.131-11.443 15.36-25.6 15.36-14.131 0-25.6-1.203-25.6-15.36v-107.52h-107.495c-14.157 0-15.36-11.469-15.36-25.6s1.203-25.6 15.36-25.6h107.495v-107.52c0-14.131 11.469-15.36 25.6-15.36 14.157 0 25.6 1.229 25.6 15.36v107.52h107.52c14.157 0 15.385 11.469 15.385 25.6s-1.229 25.6-15.385 25.6z" />
<glyph unicode="&#xe62b;" glyph-name="copy" d="M484.572 365.714q11.428 0 19.428-8t8-19.428v-347.428q0-11.428-8-19.428t-19.428-8h-274.286q-11.428 0-19.428 8t-8 19.428v82.286h-155.429q-11.428 0-19.428 8t-8 19.428v192q0 11.428 5.715 25.143t13.714 21.715l116.572 116.572q8 8 21.715 13.714t25.143 5.714h118.857q11.428 0 19.428-8t8-19.428v-93.715q19.428 11.429 36.572 11.429h118.857zM329.143 304.857l-85.428-85.428h85.428v85.428zM146.286 414.572l-85.428-85.428h85.428v85.428zM202.286 229.714l90.286 90.286v118.857h-109.714v-118.857q0-11.428-8-19.428t-19.428-8h-118.857v-182.857h146.286v73.143q0 11.428 5.714 25.143t13.714 21.714zM475.428 0v329.143h-109.714v-118.857q0-11.428-8-19.428t-19.428-8h-118.857v-182.857h256z" />
<glyph unicode="&#xe62c;" glyph-name="arrow-up" d="M438.627 278.627l-160 160c-12.496 12.497-32.757 12.497-45.254 0l-160-160c-12.497-12.497-12.497-32.758 0-45.255 12.497-12.498 32.758-12.498 45.255 0l105.372 105.373v-306.745c0-17.673 14.327-32 32-32s32 14.327 32 32v306.745l105.373-105.373c6.248-6.248 14.438-9.372 22.627-9.372s16.379 3.124 22.627 9.373c12.497 12.497 12.497 32.757 0 45.254z" />
<glyph unicode="&#xe62d;" glyph-name="uniF4E5" d="M496 256h-480q-6.5 0-11.25 4.75t-4.75 11.25 4.75 11.25 11.25 4.75h208v80h-52l-6 3t-4 3.25-2 4.5 2 5.25q6 7 36.5 44.5t34.5 41.5q10 10 23.25 10t22.75-9.5q2.5-2.5 35.5-43.25t35.5-43.25q3.5-4.5 1.25-8.25t-6.75-5.75l-4.5-2h-52v-80h208q6.5 0 11.25-4.75t4.75-11.25-4.75-11.25-11.25-4.75zM16 192h480q6.5 0 11.25-4.75t4.75-11.25-4.75-11.25-11.25-4.75h-208v-80h52q0.5-0.5 1.75-0.75t4.25-2 4-3.5 2-4.5-2-5.25q-2.5-2.5-35.5-43.25t-35.5-43.25q-9.5-9.5-22.75-9.5t-23.25 10q-4 4-34.5 41.5t-36.5 44.5q-3 4.5-1 8.25t6.5 5.75l56.5 2v80h-208q-6.5 0-11.25 4.75t-4.75 11.25 4.75 11.25 11.25 4.75z" />
<glyph unicode="&#xe62e;" glyph-name="uniF4E6" d="M502.5 201q-2.5-2.5-43.25-35.5t-43.25-35.5q-4.5-3.5-8.25-1.25t-5.75 6.75l-2 4.5v52h-80v-208q0-6.5-4.75-11.25t-11.25-4.75-11.25 4.75-4.75 11.25v480q0 6.5 4.75 11.25t11.25 4.75 11.25-4.75 4.75-11.25v-208h80v52l3 6t3.25 4 4.5 2 5.25-2q6-5 44-36t42-35q10-10 10-23.25t-9.5-22.75zM208-32q-6.5 0-11.25 4.75t-4.75 11.25v208h-80v-52q-0.5-0.5-1-1.75t-2-4.25-3.25-4-4.5-2-5.25 2q-2.5 2.5-43.25 35.5t-43.25 35.5q-9.5 9.5-9.5 22.75t10 23.25q4 4 41.5 34.75t44.5 36.25q4.5 3 8.25 1t5.75-6.5l2-4.5v-52h80v208q0 6.5 4.75 11.25t11.25 4.75 11.25-4.75 4.75-11.25v-480q0-6.5-4.75-11.25t-11.25-4.75z" />
<glyph unicode="&#xe62f;" glyph-name="images" d="M465.454 69.818v372.363h-372.363c0 25.693 20.852 46.546 46.546 46.546h325.818c25.693 0 46.546-20.853 46.546-46.546v-325.818c0-25.693-20.853-46.546-46.546-46.546zM418.909 349.091v-325.818c0-25.693-20.853-46.546-46.546-46.546h-325.818c-25.693 0-46.545 20.853-46.545 46.546v325.818c0 25.693 20.852 46.546 46.545 46.546h325.818c25.693 0 46.546-20.853 46.546-46.546zM46.545 23.273h325.818v325.818h-325.818v-325.818zM162.909 162.909l34.909-46.546 58.182 69.818 69.818-116.363h-232.727l69.818 93.091zM151.273 209.455c-19.293 0-34.909 15.616-34.909 34.909s15.616 34.909 34.909 34.909 34.909-15.616 34.909-34.909-15.616-34.909-34.909-34.909z" />
<glyph unicode="&#xe630;" glyph-name="eye" d="M256 384c-111.659 0-208.441-65.021-256-160 47.559-94.979 144.341-160 256-160 111.657 0 208.439 65.021 256 160-47.558 94.979-144.343 160-256 160zM382.225 299.148c30.081-19.187 55.571-44.887 74.717-75.148-19.146-30.261-44.637-55.961-74.718-75.149-37.797-24.108-81.445-36.851-126.224-36.851-44.78 0-88.428 12.743-126.225 36.852-30.080 19.186-55.57 44.886-74.717 75.148 19.146 30.262 44.637 55.962 74.717 75.148 1.959 1.25 3.938 2.461 5.929 3.65-4.979-13.664-7.704-28.411-7.704-43.798 0-70.692 57.308-128 128-128s128 57.308 128 128c0 15.387-2.725 30.134-7.704 43.799 1.99-1.189 3.969-2.401 5.929-3.651zM256 275c0-26.51-21.49-48-48-48s-48 21.49-48 48 21.49 48 48 48 48-21.49 48-48z" />
<glyph unicode="&#xe631;" glyph-name="eye-blocked" d="M419.661 331.792c38.822-27.515 70.685-64.546 92.339-107.792-47.561-94.979-144.343-160-256-160-31.283 0-61.396 5.106-89.589 14.542l38.978 38.978c16.529-3.65 33.486-5.52 50.611-5.52 44.779 0 88.427 12.743 126.223 36.852 30.081 19.188 55.572 44.888 74.718 75.149-18.526 29.283-43.007 54.275-71.825 73.247l34.545 34.544zM256 131c-11.362 0-22.376 1.488-32.864 4.267l156.593 156.592c2.781-10.486 4.271-21.497 4.271-32.859 0-70.692-57.308-128-128-128zM480 480h-26.869l-109.806-109.806c-27.538 8.962-56.877 13.806-87.325 13.806-111.659 0-208.441-65.021-256-160 21.329-42.596 52.564-79.154 90.597-106.534l-90.597-90.597v-26.869h26.869l453.131 453.131v26.869zM208 323c24.022 0 43.923-17.647 47.446-40.685l-54.762-54.762c-23.037 3.524-40.684 23.425-40.684 47.447 0 26.51 21.49 48 48 48zM55.058 224c19.146 30.262 44.637 55.962 74.717 75.148 1.959 1.25 3.938 2.461 5.929 3.65-4.979-13.664-7.704-28.411-7.704-43.798 0-29.262 9.825-56.224 26.349-77.781l-29.275-29.275c-28.036 18.821-51.877 43.386-70.016 72.056z" />
<glyph unicode="&#xe632;" glyph-name="stop" d="M64 416h384v-384h-384z" />
<glyph unicode="&#xe633;" glyph-name="arrow-right2" d="M310.627 41.373l160 160c12.497 12.496 12.497 32.758 0 45.255l-160 160c-12.497 12.496-32.758 12.496-45.255 0-12.497-12.497-12.497-32.758 0-45.255l105.373-105.373h-306.745c-17.673 0-32-14.327-32-32s14.327-32 32-32h306.745l-105.373-105.373c-6.248-6.248-9.372-14.438-9.372-22.627s3.124-16.379 9.372-22.627c12.497-12.497 32.758-12.497 45.255 0z" />
<glyph unicode="&#xe634;" glyph-name="arrow-left2" d="M201.373 406.627l-160-160c-12.497-12.496-12.497-32.758 0-45.254l160-160c12.497-12.496 32.758-12.496 45.255 0s12.498 32.758 0 45.254l-105.374 105.373h306.746c17.673 0 32 14.326 32 32s-14.327 32-32 32h-306.746l105.373 105.373c6.248 6.248 9.373 14.438 9.373 22.627s-3.124 16.379-9.372 22.627c-12.498 12.497-32.758 12.497-45.255 0z" />
<glyph unicode="&#xe635;" glyph-name="warning" d="M488.88 76.496l-200.304 342.976c-16.704 16.704-43.808 16.704-60.512 0l-200.32-342.976c-16.704-16.688-16.704-43.776 0-60.496h461.12c16.736 16.72 16.736 43.808 0.016 60.496zM239.872 296.352c0 13.264 10.752 24 24 24s24-10.736 24-24v-112c0-13.248-10.752-24-24-24s-24 10.752-24 24v112zM264.016 80.224c-13.248 0-24 10.72-24 24 0 13.248 10.752 24 24 24s24-10.752 24-24c0-13.28-10.752-24-24-24z" />
<glyph unicode="&#xe636;" glyph-name="arrow-down" d="M73.373 169.373l160-160c12.496-12.497 32.758-12.497 45.255 0l160 160c12.496 12.497 12.496 32.758 0 45.255-12.497 12.497-32.758 12.497-45.255 0l-105.373-105.373v306.745c0 17.673-14.327 32-32 32s-32-14.327-32-32v-306.745l-105.373 105.373c-6.248 6.248-14.438 9.372-22.627 9.372s-16.379-3.124-22.627-9.372c-12.497-12.497-12.497-32.758 0-45.255z" />
<glyph unicode="&#xe637;" glyph-name="square2" d="M448 96v-64h-64v16h-256v-16h-64v64h16v256h-16v64h64v-16h256v16h64v-64h-16v-256h16zM80 48h32v32h-32v-32zM112 400h-32v-32h32v32zM384 368h-256v-16h-16v-256h16v-16h256v16h16v256h-16v16zM432 400h-32v-32h32v32zM400 80v-32h32v32h-32z" />
<glyph unicode="&#xe638;" glyph-name="pin" d="M356.885 378.219c-8.298 8.341-21.781 8.384-30.166 0.085-2.219-2.219-3.755-4.843-4.8-7.574-17.75-37.034-37.291-57.92-61.952-70.25-27.669-13.654-59.435-23.146-110.635-23.146-2.774 0-5.547-0.534-8.149-1.622-5.226-2.176-9.365-6.336-11.541-11.541-2.154-5.206-2.154-11.094 0-16.299 1.088-2.624 2.645-4.992 4.63-6.954l69.184-69.184-96.79-129.067 129.066 96.789 69.162-69.163c1.962-2.005 4.33-3.541 6.954-4.63 2.603-1.088 5.376-1.664 8.149-1.664s5.546 0.576 8.149 1.664c5.226 2.176 9.387 6.293 11.541 11.541 1.088 2.582 1.642 5.376 1.642 8.128 0 51.2 9.472 82.966 23.104 110.208 12.31 24.661 33.195 44.203 70.25 61.952 2.752 1.045 5.354 2.582 7.552 4.8 8.298 8.384 8.256 21.867-0.086 30.166l-85.269 85.76z" />
<glyph unicode="&#xe639;" glyph-name="kids" horiz-adv-x="361" d="M281.87 191.845c-12.895 23.851-32.837 40.755-48.151 49.38-3.736-2.765-7.665-5.276-11.75-7.566 14.768-14.321 25.661-34.19 30.739-57.715 16.965-7.574 30.583-25.001 36.864-46.786 2.143 1.54 3.747 3.804 4.786 6.755 4.809 13.673-3.103 38.575-12.489 55.933zM71.813 175.95c5.086 23.533 15.975 43.387 30.735 57.708-4.070 2.291-7.999 4.798-11.738 7.563-15.319-8.62-35.256-25.524-48.154-49.379-9.386-17.355-17.298-42.257-12.489-55.93 1.035-2.95 2.643-5.215 4.79-6.755 6.269 21.788 19.9 39.227 36.856 46.793zM168.107 88.99c-0.319 1.392-0.505 2.807-0.725 4.221-1.623 10.096-0.903 20.571 2.423 30.614 5.135 15.618 14.105 29.142 24.989 39.022 1.070 0.971 2.158 1.897 3.262 2.791 11.085 9.015 23.856 14.348 36.553 14.348 1.923 0 3.853-0.125 5.723-0.372 2.754-0.394 5.423-1.115 8.048-1.998-5.245 22.118-15.792 40.733-29.939 54.097-16.767-8.651-36-13.319-56.195-13.319-20.169 0-39.398 4.665-56.165 13.323-14.142-13.357-24.69-31.975-29.939-54.086 2.617 0.873 5.283 1.593 8.013 1.983 14.48 1.885 29.507-3.584 42.295-13.987 1.103-0.892 2.188-1.828 3.251-2.795 10.893-9.876 19.877-23.404 25.012-39.014 3.322-10.039 4.036-20.518 2.423-30.61-0.224-1.414-0.406-2.829-0.728-4.221-0.819-3.561-2.033-7.031-3.459-10.422-0.531-1.259-1.054-2.519-1.668-3.747 0.967-0.019 1.881-0.103 2.863-0.103 2.685 0 5.419 0.068 8.022 0.201 3.8-0.186 7.49-0.224 11.097-0.156-0.626 1.252-1.165 2.526-1.703 3.808-1.422 3.398-2.636 6.865-3.455 10.422zM49.937 332.77c2.117-1.612 4.343-2.932 6.603-4.119-3.349-25.312 5.773-50.559 23.631-69.867 1.18-1.274 2.393-2.522 3.644-3.747 0.007-0.004 0.015-0.012 0.019-0.019 3.773-3.675 7.877-7.096 12.288-10.221 0.026-0.019 0.049-0.038 0.076-0.057 1.422-1.009 2.886-1.979 4.369-2.924 0.061-0.038 0.118-0.079 0.178-0.122 1.441-0.914 2.924-1.79 4.422-2.639 0.114-0.065 0.216-0.132 0.33-0.193 1.457-0.819 2.947-1.601 4.457-2.359 0.159-0.083 0.319-0.171 0.481-0.25 1.445-0.717 2.921-1.392 4.403-2.052 0.243-0.11 0.478-0.228 0.725-0.334 1.415-0.614 2.859-1.183 4.312-1.741 0.334-0.125 0.656-0.266 0.99-0.394 1.403-0.527 2.837-1.009 4.282-1.483 0.394-0.125 0.781-0.281 1.183-0.402 1.392-0.44 2.814-0.834 4.232-1.221 0.466-0.129 0.922-0.277 1.392-0.394 1.373-0.364 2.776-0.668 4.187-0.986 0.535-0.118 1.054-0.254 1.593-0.368 1.362-0.277 2.754-0.512 4.134-0.744 0.599-0.099 1.187-0.231 1.794-0.318 1.362-0.213 2.757-0.372 4.142-0.531 0.644-0.079 1.274-0.179 1.923-0.239 1.43-0.148 2.886-0.235 4.335-0.333 0.626-0.042 1.237-0.11 1.866-0.141 2.086-0.102 4.191-0.155 6.322-0.155h0.019c0.007 0 0.012 0 0.023 0 2.127 0 4.232 0.057 6.322 0.155 0.637 0.031 1.263 0.103 1.897 0.148 1.438 0.091 2.879 0.178 4.297 0.326 0.649 0.069 1.278 0.163 1.923 0.239 1.388 0.163 2.776 0.322 4.149 0.531 0.588 0.091 1.156 0.216 1.741 0.318 1.404 0.235 2.806 0.466 4.187 0.751 0.531 0.11 1.036 0.246 1.566 0.368 1.411 0.311 2.826 0.622 4.214 0.986 0.44 0.11 0.869 0.25 1.304 0.371 1.457 0.394 2.909 0.8 4.331 1.252 0.349 0.11 0.683 0.235 1.028 0.352 1.502 0.493 2.985 0.99 4.441 1.536 0.258 0.095 0.512 0.209 0.766 0.304 1.529 0.584 3.049 1.187 4.532 1.832 0.19 0.083 0.375 0.178 0.565 0.262 1.536 0.679 3.065 1.38 4.555 2.124 0.121 0.060 0.235 0.125 0.361 0.186 1.555 0.781 3.083 1.585 4.585 2.431 0.057 0.031 0.106 0.069 0.167 0.095 1.559 0.88 3.079 1.794 4.582 2.742 0.007 0.004 0.019 0.012 0.026 0.015 7.718 4.893 14.613 10.654 20.544 17.071v0c17.848 19.312 26.962 44.551 23.62 69.856 2.268 1.183 4.494 2.507 6.606 4.119 21.353 16.255 26.229 47.783 10.904 70.425-15.337 22.634-45.071 27.808-66.416 11.556-2.484-1.897-4.691-4.039-6.72-6.315-15.364 8.352-32.582 13.043-50.096 13.145-17.514-0.103-34.737-4.798-50.104-13.145-2.025 2.276-4.237 4.419-6.716 6.315-21.36 16.244-51.094 11.067-66.412-11.571-15.334-22.645-10.46-54.169 10.896-70.424zM162.27 324.859c16.726 0 32.15-6.603 41.244-17.666 6.505-7.9 9.113-17.196 7.35-26.169-4.050-20.905-24.947-36.761-48.602-36.894-23.654 0.129-44.552 15.99-48.599 36.898-1.763 8.969 0.85 18.262 7.35 26.169 9.095 11.059 24.504 17.662 41.256 17.662zM234.776 398.625c10.98 8.359 26.26 5.701 34.141-5.939 7.881-11.644 5.382-27.857-5.601-36.216-0.815-0.618-1.661-1.156-2.519-1.653-6.649 16.065-16.888 29.813-29.472 40.58 1.047 1.165 2.18 2.264 3.452 3.228zM194.363 360.475c4.623 0 8.37-5.564 8.37-12.425s-3.744-12.417-8.37-12.417-8.378 5.556-8.378 12.417 3.751 12.424 8.378 12.424zM130.166 360.475c4.619 0 8.37-5.564 8.37-12.425s-3.751-12.417-8.37-12.417c-4.627 0-8.374 5.556-8.374 12.417s3.747 12.424 8.374 12.424zM55.607 392.686c7.881 11.639 23.165 14.298 34.137 5.939 1.275-0.964 2.404-2.063 3.448-3.228-12.576-10.767-22.824-24.515-29.468-40.58-0.864 0.497-1.703 1.036-2.519 1.654-10.98 8.359-13.479 24.572-5.598 36.215zM239.654 174.71c-1.627 0.216-3.338 0.322-5.048 0.322-24.766 0-50.032-22.19-60.094-52.759-5.601-16.915-3.466-35.192 5.852-50.138 9.171-14.723 23.939-24.163 41.578-26.582 18.917-2.587 37.209 3.716 50.047 17.176 11.127 11.659 17.070 27.675 16.305 43.933-1.586 35.029-22.498 64.281-48.64 68.046zM224.389 65.286c-12.243 1.68-22.487 8.23-28.846 18.444-6.466 10.365-7.946 23.044-4.065 34.786 6.975 21.208 24.507 36.599 41.692 36.599 1.184 0 2.359-0.076 3.5-0.224 18.14-2.613 32.647-22.911 33.743-47.207 0.531-11.283-3.591-22.387-11.305-30.478-8.909-9.334-21.595-13.695-34.718-11.92zM150.008 122.27c-10.054 30.576-35.324 52.762-60.090 52.762-1.71 0-3.421-0.106-5.086-0.326-26.105-3.762-47.020-33.014-48.609-68.039-0.763-16.259 5.181-32.271 16.308-43.926 10.926-11.461 25.706-17.772 41.605-17.772 0 0 0 0 0.004 0 2.78 0 5.621 0.201 8.442 0.584 17.635 2.423 32.404 11.86 41.578 26.582 9.315 14.947 11.446 33.223 5.848 50.135zM94.284 64.888v0c-11.037 0-21.28 4.377-28.865 12.322-7.714 8.089-11.837 19.198-11.306 30.478 1.1 24.296 15.602 44.594 33.72 47.199 1.168 0.156 2.344 0.231 3.531 0.231 17.177 0 34.71-15.394 41.688-36.606 3.88-11.738 2.4-24.413-4.062-34.778-6.368-10.214-16.608-16.755-28.843-18.436-1.965-0.273-3.933-0.409-5.864-0.409zM162.262 256.934c14.157 0 26.347 6.755 31.823 17.628 0.497 0.986 0.095 2.188-0.887 2.685-0.982 0.493-2.189 0.099-2.685-0.887-4.506-8.966-14.4-14.662-26.101-15.3v23.355c6.121 0.892 13.411 6.644 16.475 13.57 2.951 7.369-5.852 13.278-19.248 13.142-13.418-0.114-21.421-6.269-17.613-13.726 3.524-6.319 10.29-11.495 16.096-12.812v-23.529c-11.697 0.637-21.591 6.334-26.101 15.3-0.493 0.982-1.699 1.38-2.685 0.887-0.99-0.497-1.385-1.699-0.887-2.685 5.462-10.874 17.654-17.628 31.813-17.628z" />
<glyph unicode="&#xe63a;" glyph-name="play2" d="M96 416l320-192-320-192z" />
<glyph unicode="&#xe63b;" glyph-name="list" d="M409.6 256h-307.2c-14.131 0-25.6-11.469-25.6-25.6s11.469-25.6 25.6-25.6h307.2c14.157 0 25.6 11.469 25.6 25.6s-11.443 25.6-25.6 25.6zM102.4 307.2h307.2c14.157 0 25.6 11.469 25.6 25.6s-11.443 25.6-25.6 25.6h-307.2c-14.131 0-25.6-11.469-25.6-25.6s11.469-25.6 25.6-25.6zM409.6 153.6h-307.2c-14.131 0-25.6-11.443-25.6-25.6s11.469-25.6 25.6-25.6h307.2c14.157 0 25.6 11.443 25.6 25.6s-11.443 25.6-25.6 25.6z" />
<glyph unicode="&#xe63c;" glyph-name="forbidden" d="M0 224c0-141.385 114.615-256 256-256s256 114.615 256 256-114.614 256-256 256c-141.385 0-256-114.615-256-256zM448 224c0-36.618-10.256-70.84-28.044-99.956l-263.911 263.912c29.115 17.789 63.337 28.044 99.955 28.044 106.038 0 192-85.961 192-192zM64 224c0 36.618 10.256 70.839 28.045 99.956l263.911-263.912c-29.117-17.789-63.338-28.044-99.956-28.044-106.038 0-192 85.961-192 192z" />
<glyph unicode="&#xe63d;" glyph-name="running27" d="M260.47 406.227c0-28.552-23.145-51.697-51.697-51.697s-51.697 23.145-51.697 51.697c0 28.551 23.145 51.697 51.697 51.697s51.697-23.146 51.697-51.697zM190.354 326.009l-53.78-41.835-72.53 62.313-24.975-29.072 96.228-82.673 72.299 55.895 52.856-108.418-74.041-54.756-7.137-144 51.036-2.529 5.936 119.831 60.472 44.718 3.75 2.637 15.536-92.669 153.060-11.618 3.865 50.954-113.147 8.586-12.56 77.65-51.497 142.313h74.668l44.869-101.486 35.051 15.495-54.958 124.316h-113.498z" />
<glyph unicode="&#xe63e;" glyph-name="pengo" horiz-adv-x="521" d="M95.978 293.763c37.71 45.988 71.235 175.696 160.436 175.696 96.87 0 130.395-127.627 167.428-175.696 25.48-33.076 117.245-168.166 82.321-145.272-22.728 14.915-65.719 40.822-65.719 40.822s35.278-218.421-184.707-218.421c-224.192 0-181.911 218.421-181.911 218.421s-38.752-20.431-59.504-34.596c-37.021-25.263 53.212 104.416 81.654 139.046zM157.891 134.353c7.602-32.526 44.957-62.257 100.987-62.257 44.989 0 95.471 30.446 103.772 61.575 23.505 88.109-36.676 242.098-102.375 242.098-66.406 0-123.115-152.841-102.385-241.416z" />
<glyph unicode="&#xe63f;" glyph-name="split" d="M299.738-36.571h-299.738v512h299.738v-512zM278.080 455.794h-254.246v-472.743h254.234v472.743zM512-36.571h-170.445v512h170.445v-512zM490.087 455.794h-126.618v-472.743h126.618v472.743z" />
<glyph unicode="&#xe640;" glyph-name="split-v" d="M0 175.691v299.738h512v-299.738h-512zM492.377 197.349v254.246h-472.755v-254.233h472.755zM0-36.571v170.445h512v-170.445h-512zM492.377-14.658v126.618h-472.755v-126.618h472.755z" />
<glyph unicode="&#xe641;" glyph-name="bag" d="M286.256 323.12h-60.64c0 0-98.72-77.296-98.72-193.728s103.776-117.552 103.776-117.552 27.008-2 50 0c0-0.992 104.4 13.84 104.4 117.648 0.016 103.776-98.816 193.632-98.816 193.632zM225.616 330.72h60.752v22.784h-60.752v-22.784zM285.44 361.088l30.848 75.952c0 0-19.472-16.144-30.848-16.144-11.408 0-29.44 15.664-29.44 15.664s-19.456-15.664-30.848-15.664-29.904 15.184-29.904 15.184l31.328-75.008h58.864z" />
<glyph unicode="&#xe642;" glyph-name="logicEditor" d="M25.6 413.989h158.72v-56.32c0-15.36-10.24-25.6-25.6-25.6h-112.64c-15.36 0-25.6 10.24-25.6 25.6v56.32h5.12zM35.84 444.709h137.584v-25.6h-137.584v25.6zM486.4 24.869h-158.72v56.32c0 15.36 10.24 25.6 25.6 25.6h112.64c15.36 0 25.6-10.24 25.6-25.6v-56.32h-5.12zM337.92 19.749h138.24v-25.6h-138.24v25.6zM397.726 107.127l19.2-1.28c0 0 6.4 49.92-19.2 87.982-41.457 61.635-235.167 1.28-268.8 75.858-11.54 25.59-11.612 63.319-11.612 63.319l-22.948 9.303c0 0-6.046-51.2 12.8-86.702 49.623-93.476 230.963-18.033 272.993-83.538 23.040-35.911 17.567-64.942 17.567-64.942z" />
<glyph unicode="&#xe643;" glyph-name="sceneEditor" d="M385.116 361.621h-254.29v44.4h-116.552v-116.562h44.688v-122.082h-44.688v-116.562h116.562v44.606h254.29v-44.606h116.572v116.562h-44.401v122.112h44.401v116.562h-116.582v-44.431zM41.738 378.579h61.624v-61.624h-61.624v61.624zM103.362 78.352h-61.624v61.604h61.624v-61.604zM474.204 78.352h-61.614v61.604h61.614v-61.604zM429.824 167.41h-44.697v-44.493h-254.3v44.493h-44.4v122.082h44.4v44.656h254.29v-44.656h44.677v-122.082h0.031zM412.59 378.579h61.614v-61.624h-61.614v61.624zM407.9 113.752c-0.010-1.034-3.983 0.635-4.27-0.195-8.93 9.36 17.787 28.017-0.185 45.947-33.649 33.577-73.584 71.117-83.998 71.229-16.957 0.164-108.431-97.372-126.649-116.982l-15.8 0.164c8.448 9.759 20.715 23.839 34.662 39.404-21.474 17.736-42.608 33.7-49.111 33.762-5.97 0.062-23.89-13.005-43.049-28.508s-0.174-35.051-11.111-44.81zM208.128 302.168c19.559 0 35.43-15.851 35.43-35.42 0-19.559-15.872-35.42-35.43-35.42s-35.43 15.862-35.43 35.42c0.010 19.558 15.872 35.42 35.43 35.42z" />
<glyph unicode="&#xe644;" glyph-name="icon_7664" d="M425.098 166.027c0-37.32-47.462-65.95-51.42-68.27l-88.837-51.338v134.717l139.709 80.404 0.092-18.458c-0.292-1.551-0.272-3.097 0.041-4.608l0.42-72.427v-0.021zM267.182 251.321v114.658l145.869-84.199-99.558-57.293-46.31 26.834zM261.57 46.398l-151.624 87.378v13.461l110.756-63.897c1.787-1.029 3.799-1.562 5.816-1.562 1.152 0 2.32 0.169 3.456 0.533 3.093 0.952 5.653 3.159 7.055 6.098l24.546 51.43v-93.44zM67.758 198.457l35.307 73.707 153.728-88.289-35.353-74.096-153.682 88.678zM255.534 365.748v-115.861l-34.396-18.688-99.507 57.159 133.904 77.389zM481.398 226.039l-30.418 58c-1.351 2.57-3.548 4.429-6.052 5.422-0.86 1.009-1.869 1.879-3.041 2.55l-174.536 100.731c-3.594 2.089-8.048 2.089-11.638 0l-163.226-94.331c-0.036-0.021-0.051-0.031-0.092-0.062-0.409-0.251-0.814-0.512-1.193-0.798-0.010-0.010-0.020-0.020-0.020-0.030-0.016-0.010-0.036-0.021-0.051-0.031-1.628-1.111-3.016-2.662-3.938-4.582l-45.087-94.116c-2.632-5.478-0.594-12.068 4.679-15.109l39.89-22.999v-33.639c0-4.152 2.212-7.998 5.811-10.082l174.915-100.793c1.797-1.039 3.799-1.541 5.806-1.541 2.022 0 4.029 0.512 5.832 1.551l110.791 64.021c20.101 12.861 58.542 43.361 58.542 88.75l-0.313 51.512 17.209-9.913c1.813-1.060 3.82-1.562 5.811-1.562 2.939 0 5.842 1.111 8.069 3.241 3.728 3.599 4.639 9.221 2.248 13.808z" />
<glyph unicode="&#xe645;" glyph-name="cart" d="M423.609 192c17.6 0 35.956 13.846 40.791 30.769l46.418 162.463c4.835 16.922-5.609 30.768-23.209 30.768h-327.609c0 35.346-28.654 64-64 64h-96v-64h96v-272c0-26.51 21.49-48 48-48h304c17.673 0 32 14.327 32 32s-14.327 32-32 32h-288v32h263.609zM160 352h289.403l-27.429-96h-261.974v96zM192 8c0-22-18-40-40-40h-16c-22 0-40 18-40 40v16c0 22 18 40 40 40h16c22 0 40-18 40-40v-16zM480 8c0-22-18-40-40-40h-16c-22 0-40 18-40 40v16c0 22 18 40 40 40h16c22 0 40-18 40-40v-16z" />
<glyph unicode="&#xe646;" glyph-name="battery" d="M448 256c-8.848 0-16 0-16 0v16c0 17.664-14.336 32-32 32h-320c-17.68 0-32-14.336-32-32v-112c0-17.664 14.32-32 32-32h320c17.664 0 32 14.336 32 32v16c0 0 7.152 0 16 0 8.832 0 16 7.168 16 16v48c0 8.848-7.168 16-16 16zM416 160c0-8.832-7.168-16-16-16h-320c-8.848 0-16 7.168-16 16v112c0 8.848 7.152 16 16 16h320c8.832 0 16-7.152 16-16v-112zM80 160h96v112h-96v-112zM192 160h96v112h-96v-112z" />
<glyph unicode="&#xe647;" glyph-name="file" d="M432 480h-384c-26.4 0-48-21.6-48-48v-416c0-26.4 21.6-48 48-48h384c26.4 0 48 21.6 48 48v416c0 26.4-21.6 48-48 48zM416 32h-352v384h352v-384zM128 256h224v-32h-224zM128 192h224v-32h-224zM128 128h224v-32h-224zM128 320h224v-32h-224z" />
<glyph unicode="&#xe648;" glyph-name="icon_4032" d="M259.255 114.726l66.382 66.382c5.639 5.642 5.639 14.786 0 20.426s-14.786 5.639-20.426 0l-66.382-66.382-66.382 66.382 66.382 66.382c5.639 5.639 5.639 14.786 0 20.426s-14.786 5.639-20.426 0l-66.382-66.382-22.979 22.979-40.851-40.851c-37.056-37.057-41.648-94.281-13.783-136.335l-62.814-62.813 30.639-30.639 62.814 62.814c42.055-27.865 99.279-23.275 136.335 13.783l40.851 40.851-22.979 22.978zM380.475 180.922l42.169 42.169c38.252 38.252 42.991 97.322 14.228 140.733l64.839 64.841-31.627 31.627-64.841-64.84c-43.412 28.764-102.481 24.026-140.733-14.227l-42.169-42.169c154.688-154.688 1.23-1.23 158.134-158.133z" />
<glyph unicode="&#xe649;" glyph-name="add" d="M424 48h-48c-4.416 0-8 3.584-8 8s3.584 8 8 8h40v40c0 4.416 3.584 8 8 8 4.4 0 8-3.584 8-8v-48c0-4.416-3.6-8-8-8zM424 144c-4.416 0-8 3.584-8 8v48c0 4.416 3.584 8 8 8 4.4 0 8-3.584 8-8v-48c0-4.416-3.6-8-8-8zM424 240c-4.416 0-8 3.584-8 8v48c0 4.416 3.584 8 8 8 4.4 0 8-3.584 8-8v-48c0-4.416-3.6-8-8-8zM424 336c-4.416 0-8 3.584-8 8v40h-40c-4.416 0-8 3.584-8 8s3.584 8 8 8h48c4.4 0 8-3.584 8-8v-48c0-4.416-3.6-8-8-8zM328 48h-48c-4.416 0-8 3.584-8 8s3.584 8 8 8h48c4.4 0 8-3.584 8-8s-3.6-8-8-8zM328 384h-48c-4.416 0-8 3.584-8 8s3.584 8 8 8h48c4.4 0 8-3.584 8-8s-3.6-8-8-8zM319.008 240c8.832 0 16-7.152 16-16 0-8.832-7.168-16-16-16h-48v-48c0-8.832-7.168-16-16-16-8.848 0-16 7.168-16 16v48h-48c-8.832 0-16 7.168-16 16 0 8.848 7.152 16 16 16h48v48c0 8.848 7.152 16 16 16 8.832 0 16-7.152 16-16v-48h48zM232 384h-48c-4.416 0-8 3.584-8 8s3.584 8 8 8h48c4.4 0 8-3.584 8-8s-3.6-8-8-8zM136 48h-48c-4.416 0-8 3.584-8 8v48c0 4.416 3.584 8 8 8s8-3.584 8-8v-40h40c4.416 0 8-3.584 8-8s-3.584-8-8-8zM136 384h-40v-40c0-4.416-3.584-8-8-8s-8 3.584-8 8v48c0 4.416 3.584 8 8 8h48c4.416 0 8-3.584 8-8s-3.584-8-8-8zM88 304c4.416 0 8-3.584 8-8v-48c0-4.416-3.584-8-8-8s-8 3.584-8 8v48c0 4.416 3.584 8 8 8zM88 208c4.416 0 8-3.584 8-8v-48c0-4.416-3.584-8-8-8s-8 3.584-8 8v48c0 4.416 3.584 8 8 8zM184 64h48c4.4 0 8-3.584 8-8s-3.6-8-8-8h-48c-4.416 0-8 3.584-8 8s3.584 8 8 8z" />
<glyph unicode="&#xe64a;" glyph-name="icon_33970" d="M324.029 91.239c2.606 2.606 4.039 6.057 4.039 9.743v138.675c0 7.598-6.185 13.778-13.778 13.778h-198.113c-7.593 0-13.778-6.18-13.778-13.778v-138.675c0-7.598 6.185-13.778 13.783-13.783h198.108c3.676 0 7.137 1.438 9.738 4.039zM300.508 114.766h-170.553v111.114l170.553-0.010v-111.104zM171.546 262.749v12.841l170.547-0.010v-111.109h-4.716v-27.561h18.493c3.682 0 7.147 1.428 9.748 4.034 2.606 2.601 4.039 6.062 4.039 9.743v138.675c0 7.603-6.185 13.783-13.778 13.783h-198.113c-7.593 0-13.778-6.18-13.778-13.778v-26.619h27.556zM211.497 311.266v12.836h170.547v-111.114h-4.716v-27.561h18.498c3.682-0.005 7.142 1.428 9.743 4.034 2.596 2.606 4.029 6.062 4.029 9.743v138.675c0 7.598-6.18 13.778-13.778 13.778h-198.113c-7.593 0-13.778-6.185-13.778-13.773v-26.624h27.566z" />
<glyph unicode="&#xe64b;" glyph-name="user" d="M0-32v48c0 71.744 90.384 98.864 209.584 109.792-26.176 16.224-46.72 61.824-57.424 98.24-0.048 0-0.096-0.032-0.16-0.032-1.088 0-24 28.656-24 64 0 31.008-2.208 56.864 16.112 62.72-0.016 0.432-0.112 0.848-0.112 1.28 0 39.312 20.336 73.76 50.992 93.744 7.92 19.76 32.064 34.256 61.008 34.256s53.088-14.496 61.008-34.256c30.656-19.984 50.992-54.432 50.992-93.744 0-0.432-0.096-0.848-0.112-1.28 18.32-5.856 16.112-31.712 16.112-62.72 0-35.344-25.408-64-24-64-0.064 0-0.112 0.032-0.16 0.032-10.704-36.4-31.248-82.016-57.424-98.24 119.2-10.928 209.584-37.040 209.584-109.792v-48h-512z" />
<glyph unicode="&#xe64c;" glyph-name="spinner2" d="M512 224c-0.639 33.431-7.892 66.758-21.288 97.231-13.352 30.5-32.731 58.129-56.521 80.96-23.776 22.848-51.972 40.91-82.492 52.826-30.502 11.962-63.298 17.676-95.699 16.983-32.405-0.641-64.666-7.687-94.167-20.678-29.524-12.948-56.271-31.735-78.367-54.788-22.112-23.041-39.58-50.354-51.093-79.899-11.557-29.531-17.064-61.26-16.373-92.635 0.643-31.38 7.482-62.574 20.067-91.103 12.544-28.55 30.738-54.414 53.055-75.774 22.305-21.377 48.736-38.252 77.307-49.36 28.559-11.152 59.223-16.451 89.571-15.763 30.354 0.645 60.481 7.277 88.038 19.457 27.575 12.141 52.558 29.74 73.183 51.322 20.641 21.57 36.922 47.118 47.627 74.715 6.517 16.729 10.94 34.2 13.271 51.899 0.623-0.036 1.249-0.060 1.881-0.060 17.673 0 32 14.326 32 32 0 0.898-0.047 1.786-0.119 2.666h0.119zM461.153 139.026c-11.736-26.601-28.742-50.7-49.589-70.59-20.835-19.905-45.5-35.593-72.122-45.895-26.614-10.339-55.145-15.226-83.442-14.541-28.302 0.649-56.298 6.868-81.91 18.237-25.625 11.333-48.842 27.745-67.997 47.856-19.169 20.099-34.264 43.882-44.161 69.529-9.935 25.642-14.614 53.107-13.932 80.378 0.651 27.276 6.664 54.206 17.627 78.845 10.929 24.65 26.749 46.985 46.123 65.405 19.365 18.434 42.265 32.935 66.937 42.428 24.669 9.53 51.068 14.003 77.313 13.322 26.25-0.653 52.114-6.459 75.781-17.017 23.676-10.525 45.128-25.751 62.812-44.391 17.698-18.629 31.605-40.647 40.695-64.344 9.124-23.696 13.391-49.029 12.712-74.248h0.119c-0.072-0.88-0.119-1.768-0.119-2.666 0-16.506 12.496-30.087 28.543-31.812-3.112-17.411-8.265-34.409-15.39-50.496z" />
<glyph unicode="&#xe64d;" glyph-name="piquito_bbox" d="M512 475.429c0 0 0 0-358.4 0-77.722 0-153.6-56.013-153.6-153.6 0-333.619 0-358.4 0-358.4l512 512z" />
<glyph unicode="&#xe64e;" glyph-name="icon_coll" d="M339.389 106.599c2.606 2.611 4.039 6.062 4.039 9.743v138.675c0 7.598-6.185 13.778-13.778 13.778h-198.113c-7.593 0-13.778-6.18-13.778-13.778v-138.675c0-7.598 6.185-13.778 13.778-13.783h198.108c3.682 0 7.137 1.438 9.743 4.039zM315.863 130.131h-170.547v111.109l170.558-0.010-0.010-111.099zM186.905 278.109v12.841l170.547-0.010v-111.109h-4.711v-27.561h18.488c3.682 0 7.147 1.428 9.748 4.034 2.606 2.606 4.039 6.067 4.039 9.743v138.675c0 7.603-6.185 13.783-13.778 13.783h-198.113c-7.593 0-13.778-6.18-13.778-13.778v-26.619h27.556z" />
<glyph unicode="&#xe64f;" glyph-name="moving_select" horiz-adv-x="516" d="M118.443 405.867l69.562 69.562 69.731-69.731zM306.448 357.070l69.562-69.562-69.731-69.731zM257.736 168.981l-69.562-69.562-69.731 69.731zM69.562 217.777l-69.562 69.562 69.731 69.731z" />
<glyph unicode="&#xe650;" glyph-name="move_select" horiz-adv-x="516" d="M118.443 405.867l69.562 69.562 69.731-69.731zM306.448 357.070l69.562-69.562-69.731-69.731zM341.144-36.62l-90.12 259.861 258.469-86.221zM257.736 168.981l-69.562-69.562-69.731 69.731zM69.562 217.777l-69.562 69.562 69.731 69.731z" />
<glyph unicode="&#xe651;" glyph-name="piquito_bbox_right" d="M512-36.571c0 0 0 0 0 358.4 0 77.721-56.013 153.6-153.6 153.6-333.619 0-358.4 0-358.4 0l512-512z" />
<glyph unicode="&#xe652;" glyph-name="bomb" d="M468.25 394.691l-63.739 11.678 17.173 26.773-30.218-9.928-6.779 31.104-14.377-28.36-40.494 40.638 23.608-53.704-31.084-6.8 12.769-6.462c-64.461-2.985-103.030-20.982-115.118-83.906h-12.974c-13.092 0-23.696-10.639-23.696-23.731v-16.471c-62.51-19.241-107.955-77.424-107.955-146.274 0-84.459 68.505-152.96 152.996-152.96 84.5 0 152.99 68.5 152.99 152.96 0 68.849-45.44 127.048-107.955 146.279v16.466c0 13.097-10.603 23.731-23.696 23.731h-4.69c8.612 39.28 33.136 56.356 94.766 58.957l-6.262-9.728 30.244 9.892 6.994-56.377 14.167 53.699 26.777-17.198-9.913 30.238 66.462 9.482z" />
<glyph unicode="&#xe653;" glyph-name="card" horiz-adv-x="477" d="M419.125 27.336c0-35.293-28.615-63.907-63.907-63.907h-224.632c-35.292 0-63.907 28.615-63.907 63.907v338.939c0 35.292 28.615 63.907 63.907 63.907h224.632c35.293 0 63.907-28.615 63.907-63.907v-338.939zM390.549 366.275c0 19.509-15.813 35.331-35.331 35.331h-224.632c-19.508 0-35.331-15.822-35.331-35.331v-338.939c0-19.518 15.822-35.33 35.331-35.33h224.632c19.518 0 35.331 15.813 35.331 35.331v338.939zM247.512 304.54c-4.392-54.839-34.416-99.104-73.338-109.839 38.922-10.716 68.946-54.972 73.338-109.82 4.392 54.849 34.416 99.104 73.338 109.82-38.912 10.726-68.946 55-73.338 109.839zM466.753 72.582c0-35.293-28.615-63.907-63.907-63.907l1.991 111.925c-14.288 33.254-11.897 255.248-11.897 290.54l-278.633 0.381c0 35.293 28.615 63.907 63.907 63.907h224.632c35.293 0 63.907-28.615 63.907-63.907v-338.939z" />
<glyph unicode="&#xe654;" glyph-name="chess" d="M411.643 318.409c-24.002 26.911-67.19 55.434-75.223 77.507-4.373 7.9-26.711 9.769-38.759 15.954 1.162 15.575 6.441 27.008 9.108 41.037-24.197-0.113-41.252-7.373-54.707-18.237-67.615-3.927-107.223-61.978-113.987-125.379-7.347-68.941 24.637-114.002 18.238-181.673 7.286-3.865 15.841-7.030 25.18-9.677l-0.016-0.010-20.736-47.821h23.45c-0.149-0.686-0.226-1.413-0.226-2.156v-9.072c0-1.341 0.276-2.586 0.727-3.769h-6.928c-5.883 0-10.644-4.782-10.644-10.66v-5.468h-28.482c-5.873 0-10.639-4.762-10.639-10.639l-10.639-36.357c0-5.873 4.766-10.639 10.639-10.639h235.853c5.888 0 10.654 4.767 10.654 10.639l-8.873 36.357c0 5.878-4.772 10.639-10.639 10.639h-19.405v5.468c0 5.878-4.762 10.66-10.634 10.66h-6.917c0.45 1.183 0.712 2.432 0.712 3.769v9.072c0 0.743-0.082 1.469-0.226 2.156h8.914c14.111-0.087 14.756 11.474 18.089 34.012 6.082 91.202-39.946 130.253-82.068 173.25 25.918-6.938 35.021 11.197 59.274 9.108 18.852-1.613 28.206-23.281 43.31-25.067 17.168-2.028 35.507 8.146 45.589 20.516 10.082 12.38 8.279 28.544 0.010 36.48z" />
<glyph unicode="&#xe655;" glyph-name="device" horiz-adv-x="246" d="M212.992 470.309h-180.224c-18.099 0-32.768-14.669-32.768-32.768v-389.289c0-18.099 14.669-32.768 32.768-32.768h180.224c18.099 0 32.768 14.669 32.768 32.768v389.289c0 18.099-14.669 32.768-32.768 32.768zM122.88 29.994c-11.786 0-21.335 9.549-21.335 21.33 0 11.786 9.549 21.335 21.335 21.335 11.776 0 21.33-9.549 21.33-21.335 0-11.781-9.549-21.33-21.33-21.33zM225.28 99.452c0-6.774-5.514-12.288-12.288-12.288h-180.224c-6.774 0-12.288 5.514-12.288 12.288v338.089c0 6.774 5.514 12.288 12.288 12.288h180.224c6.774 0 12.288-5.514 12.288-12.288v-338.089z" />
<glyph unicode="&#xe656;" glyph-name="icon_list" d="M168.238 371.232h323.548c11.161 0 20.209-9.247 20.209-20.659v-20.654c0-11.413-9.052-20.67-20.209-20.67h-323.548c-11.166 0-20.224 9.257-20.224 20.67v20.654c0 11.412 9.063 20.659 20.224 20.659zM26.675 371.232h60.677c11.156 0 20.229-9.247 20.229-20.659v-20.654c0-11.413-9.073-20.67-20.229-20.67h-60.677c-11.156 0-20.203 9.257-20.203 20.67v20.654c0 11.412 9.047 20.659 20.203 20.659zM168.238 252.14h323.548c11.161 0 20.209-9.252 20.209-20.665v-20.649c0-11.413-9.052-20.669-20.209-20.669h-323.548c-11.166 0-20.224 9.262-20.224 20.669v20.649c0 11.417 9.063 20.664 20.224 20.664zM168.238 133.049h323.548c11.161 0 20.209-9.241 20.209-20.659v-20.654c0-11.418-9.052-20.659-20.209-20.659h-323.548c-11.166 0-20.224 9.241-20.224 20.659v20.654c0 11.418 9.063 20.659 20.224 20.659zM26.675 252.14h60.677c11.156 0 20.229-9.252 20.229-20.665v-20.649c0-11.413-9.073-20.669-20.229-20.669h-60.677c-11.156 0-20.203 9.262-20.203 20.669v20.649c0 11.417 9.047 20.664 20.203 20.664zM26.675 133.049h60.677c11.156 0 20.229-9.241 20.229-20.659v-20.654c0-11.418-9.073-20.659-20.229-20.659h-60.677c-11.156 0-20.203 9.241-20.203 20.659v20.654c0 11.418 9.047 20.659 20.203 20.659z" />
<glyph unicode="&#xe657;" glyph-name="menu" d="M29.59 375.636c-7.393 0-13.357-5.964-13.357-13.356v-45.608c0-7.393 5.963-13.357 13.357-13.357h452.821c7.393 0 13.356 5.964 13.356 13.357v45.608c0 7.393-5.964 13.356-13.356 13.356zM29.59 254.449c-7.393 0-13.357-5.964-13.357-13.356v-45.608c0-7.394 5.963-13.357 13.357-13.357h452.821c7.393 0 13.356 5.964 13.356 13.357v45.608c0 7.393-5.964 13.356-13.356 13.356zM29.59 135.543c-7.393 0-13.357-5.964-13.357-13.357v-45.608c0-7.393 5.963-13.356 13.357-13.356h452.821c7.393 0 13.356 5.964 13.356 13.356v45.608c0 7.394-5.964 13.357-13.356 13.357z" />
<glyph unicode="&#xe658;" glyph-name="puzzle" d="M442.46 250.645c-15.498-13.666-37.98-7.716-37.98 19.005v79.534c0 10.921-8.11 18.724-19.036 18.724h-80.123c-26.721 0-32.676 22.512-19.005 38 22.507 25.498 10.45 64.927-30.505 66.637-40.95-1.705-53.007-41.067-30.5-66.57 13.671-15.493 7.721-38.067-19-38.067h-78.94c-10.921 0-19.85-7.803-19.85-18.724v-81.173c0-4.762 2.135-12.774 6.697-14.899 4.537-2.109 10.404 0.092 15.227 4.49 14.838 13.527 34.765 17.296 51.681 9.846 17.004-7.49 28.795-25.098 28.795-47.089v-0.645c0-21.924-11.929-39.363-29.020-46.889-17.101-7.526-37.12-3.481-52.009 10.091-4.772 4.357-10.368 6.436-14.73 4.409-4.48-2.094-6.641-9.753-6.641-14.515v-81.7c0-10.921 8.93-20.163 19.85-20.163h78.935c26.721 0 32.671-21.688 19-37.181-22.507-25.498-10.45-64.466 30.505-66.176 40.95 1.71 53.008 40.464 30.494 65.966-13.66 15.498-7.705 37.392 19.015 37.392h80.123c10.926 0 19.036 9.241 19.036 20.163v79.534c0 26.721 22.308 32.666 37.791 19 25.498-22.507 64.62-10.45 66.329 30.505-1.71 40.95-40.642 53.002-66.14 30.494z" />
<glyph unicode="&#xe659;" glyph-name="sport" d="M476.007 329.452c-41.641 85.504-126.572 138.624-221.65 138.624-37.468 0-73.667-8.382-107.587-24.914-122.050-59.474-172.944-207.257-113.454-329.426 41.63-85.509 126.556-138.624 221.639-138.624 37.468 0 73.671 8.387 107.597 24.914 122.046 59.474 172.943 207.252 113.454 329.426zM386.334 369.429l-25.411-77.353-79.493-9.758-71.9 52.992 13.537 55.526 94.663 20.997 68.603-42.404zM153.498 429.349c31.805 15.504 65.741 23.363 100.859 23.363 14.761 0 29.245-1.392 43.341-4.034l8.796-23.603-89.359-19.825-65.434 3.257-2.196 18.77c1.337 0.686 2.637 1.413 3.994 2.074zM198.681 324.225l72.074-53.12-14.659-75.412-94.198-31.186-47.616 31.498 17.218 107.546 67.179 20.674zM134.978 419.211l1.997-17.065-44.688-50.59-33.776-8.202c18.683 30.264 44.483 56.494 76.467 75.858zM48.328 325.075l46.162 11.203 22.272-27.663-17.618-110.034-36.096-17.608-38.681 25.067c-2.755 41.354 5.724 82.478 23.962 119.035zM82.509 67.503c-13.901 15.662-25.856 33.392-35.379 52.956-10.404 21.366-17.198 43.566-20.639 65.904l31.959-20.716 30.546-62.633-6.487-35.512zM254.956-9.527c-60.836 0-117.222 23.204-159.319 63.411l6.543 35.835 59.587-16.707 97.122-66.279 1.505-16.108c-1.813-0.041-3.62-0.154-5.438-0.154zM329.902 52.276l-64.435-31.431-92.298 62.986-3.129 67.2 91.838 30.402 68.019-37.704v-91.454zM400.88 42.753l-55.618 12.103v89.18l60.027 55.424 78.351-6.589c-7.317-57.887-36.352-112.123-82.76-150.119zM407.582 214.683l-33.413 68.505 26.988 82.14 35.784-1.874c9.641-12.487 18.13-26.096 25.257-40.729 17.961-36.889 25.134-76.257 22.861-114.56l-77.476 6.518z" />
<glyph unicode="&#xe65a;" glyph-name="world" d="M486.072 224.999c-1.879 124.887-103.506 224.834-227.738 224.829-1.162 0-2.34-0.010-3.507-0.025l-4.603-0.072c-125.814-1.899-226.268-105.63-224.369-231.69l0.072-4.613c1.879-124.887 103.506-224.829 227.738-224.829 1.162 0 2.34 0.010 3.507 0.026l4.603 0.072c125.814 1.899 226.268 105.63 224.374 231.69l-0.077 4.613zM329.518 15.376c-1.976 9.2-10.204 16.031-19.952 15.882l-14.387-0.215c-7.941-0.118-14.479 6.236-14.597 14.192l-0.005 0.292c-0.118 7.957 6.221 14.505 14.167 14.628l0.236 0.005c5.058 0.077 9.098 4.245 9.022 9.313l-0.062 4.188c-0.108 7.235 5.658 13.189 12.877 13.296l0.302 0.005c9.385 0.144 16.88 7.88 16.743 17.285l-0.763 50.826c-0.128 8.32-6.958 14.961-15.262 14.838l-0.302-0.005c-8.305-0.128-14.935-6.974-14.807-15.293l0.077-5.125c0.098-6.512-5.089-11.873-11.591-11.971l-0.236-0.005c-6.502-0.098-11.848 5.099-11.945 11.618l-0.041 2.555c-0.128 8.519-7.127 15.324-15.632 15.196l-40.51-0.615c-8.505-0.128-15.298-7.142-15.166-15.662l0.999-66.176c0.123-8.279-6.471-15.089-14.736-15.216l-11.029-0.169c-8.263-0.123-14.858-6.938-14.736-15.216l0.496-33.157c-23.757 10.348-45.671 25.042-64.665 43.771-8.775 8.653-16.66 17.971-23.716 27.791l20.373 0.307c4.915 0.072 8.96-3.856 9.031-8.781l0.005-0.226c0.112-7.388 6.18-13.281 13.547-13.174l0.272 0.005c7.373 0.113 13.255 6.19 13.148 13.573l-0.573 38.195c-0.138 9.318-7.792 16.763-17.096 16.62l-0.272-0.005c-5.442-0.082-9.922 4.27-10.004 9.723l-0.153 10.224c-0.056 3.82 2.985 6.963 6.799 7.024l0.205 0.005c7.49 0.113 13.47 6.288 13.358 13.793l-0.911 60.431c-0.133 8.981-7.511 16.154-16.476 16.021l-0.307-0.005c-7.746-0.118-14.116 6.077-14.234 13.839l-0.010 0.313c-0.123 8.12 6.349 14.802 14.454 14.925l1.264 0.020c11.55 0.174 20.772 9.697 20.598 21.269l-0.005 0.21 0.911 0.016c12.903 0.195 23.198 10.829 23.004 23.757l-0.005 0.236 11.315 0.169c8.146 0.123 14.654 6.841 14.53 15.007l-0.446 29.65c-0.123 8.167-6.83 14.684-14.976 14.562l-0.261-0.005c-6.103-0.092-11.126 4.793-11.218 10.905l-0.164 10.742c28.359 14.684 60.411 23.235 94.439 23.747l4.603 0.072c1.096 0.015 2.197 0.025 3.292 0.025h0.005c39.993 0 78.356-11.054 111.642-31.616l-69.376-1.050c-7.788-0.118-14.009-6.538-13.89-14.341l0.63-41.764c0.118-7.803 6.528-14.034 14.315-13.916l75.335 1.137c6.702 0.102 12.216-5.258 12.318-11.976l0.015-0.932c0.087-5.827-4.557-10.624-10.373-10.711l-52.521-0.793c-7.373-0.113-13.266-6.19-13.154-13.583l0.005-0.266c0.108-7.137-5.581-13.010-12.708-13.118l-7.127-0.107c-2.841-0.041-5.176 2.227-5.217 5.074l-0.062 4.229c-0.082 5.514-4.613 9.918-10.117 9.836l-21.412-0.322c-5.504-0.082-9.902-4.624-9.815-10.137l0.005-0.195c0.077-5.074-3.968-9.247-9.031-9.324l-18.739-0.281c-6.928-0.102-12.457-5.816-12.355-12.754l0.604-40.161c0.102-6.938 5.806-12.483 12.728-12.375l17.838 0.272c5.56 0.082 10.005 4.669 9.917 10.245l-0.005 0.179c-0.066 4.275 3.344 7.793 7.608 7.859l46.208 0.696c6.948 0.103 12.667-5.453 12.774-12.416l0.215-14.32c0.113-7.511 6.282-13.507 13.778-13.394l34.115 0.517c7.419 0.113 13.522-5.822 13.635-13.255l0.005-0.261c0.103-6.851 5.729-12.318 12.565-12.216l8.965 0.133c4.592 0.072 8.377-3.604 8.443-8.207l0.015-0.937c0.108-7.065 5.909-12.713 12.964-12.606l41.57 0.63c-20.854-62.070-69.438-111.585-131.134-133.514z" />
<glyph unicode="&#xe65b;" glyph-name="googleplus" d="M279.533 448c0 0-100.478 0-133.97 0-60.060 0-116.585-45.503-116.585-98.211 0-53.863 40.941-97.333 102.044-97.333 4.249 0 8.378 0.085 12.421 0.376-3.965-7.593-6.801-16.144-6.801-25.021 0-14.969 8.052-27.105 18.234-37.012-7.693 0-15.121-0.224-23.226-0.224-74.391 0.001-131.65-47.379-131.65-96.51 0-48.389 62.771-78.657 137.167-78.657 84.812 0 131.653 48.122 131.653 96.514 0 38.8-11.448 62.036-46.843 87.067-12.108 8.572-35.265 29.418-35.265 41.672 0 14.36 4.098 21.434 25.714 38.323 22.156 17.312 37.836 41.651 37.836 69.958 0 33.703-15.010 66.549-43.186 77.386h42.477l29.98 21.672zM232.74 120.271c1.063-4.486 1.642-9.103 1.642-13.814 0-39.1-25.196-69.655-97.487-69.655-51.421 0-88.558 32.552-88.558 71.65 0 38.321 46.063 70.222 97.482 69.666 12-0.127 23.184-2.058 33.335-5.345 27.913-19.413 47.938-30.381 53.586-52.502zM150.409 266.112c-34.519 1.032-67.318 38.613-73.276 83.93-5.958 45.333 17.185 80.021 51.694 78.995 34.505-1.037 67.319-37.407 73.279-82.729 5.953-45.33-17.195-81.229-51.697-80.196zM416 352v96h-32v-96h-96v-32h96v-96h32v96h96v32z" />
<glyph unicode="&#xe65c;" glyph-name="facebook" d="M287.935-32h-95.935v256h-64v88.225l64 0.029-0.104 51.976c0 71.976 19.517 115.77 104.299 115.77h70.588v-88.242h-44.115c-33.016 0-34.603-12.328-34.603-35.342l-0.131-44.162h79.345l-9.352-88.225-69.927-0.029-0.065-256z" />
<glyph unicode="&#xe65d;" glyph-name="twitter" d="M512 382.791c-18.838-8.354-39.082-14.001-60.33-16.54 21.686 13 38.343 33.585 46.186 58.115-20.298-12.039-42.778-20.78-66.705-25.49-19.16 20.415-46.461 33.17-76.673 33.17-58.011 0-105.044-47.029-105.044-105.039 0-8.233 0.929-16.25 2.72-23.939-87.3 4.382-164.701 46.2-216.509 109.753-9.042-15.514-14.223-33.558-14.223-52.809 0-36.444 18.544-68.596 46.73-87.433-17.219 0.546-33.416 5.271-47.577 13.139-0.010-0.438-0.010-0.878-0.010-1.321 0-50.894 36.209-93.348 84.261-103-8.813-2.4-18.094-3.686-27.674-3.686-6.769 0-13.349 0.66-19.764 1.886 13.368-41.73 52.16-72.103 98.126-72.948-35.95-28.175-81.243-44.967-130.458-44.967-8.479 0-16.84 0.497-25.058 1.47 46.486-29.805 101.701-47.197 161.021-47.197 193.211 0 298.868 160.062 298.868 298.872 0 4.554-0.103 9.084-0.305 13.59 20.528 14.81 38.336 33.31 52.418 54.374z" />
<glyph unicode="&#xe65e;" glyph-name="youtube" d="M416 416h-320c-52.8 0-96-43.2-96-96v-192c0-52.8 43.2-96 96-96h320c52.8 0 96 43.2 96 96v192c0 52.8-43.2 96-96 96zM192 96v256l160-128-160-128z" />
<glyph unicode="&#xe65f;" glyph-name="minimize" d="M0 158.828h144.758v-144.758h-39.803v104.95h-104.955zM104.955 424.787h39.803v-144.758h-144.758v39.808h104.955zM367.242 424.787h39.808v-104.95h104.95v-39.808h-144.758zM367.242 158.828h144.758v-39.808h-104.95v-104.95h-39.808z" />
<glyph unicode="&#xe660;" glyph-name="fullscreen" d="M144.758 14.071h-144.758v144.758h39.808v-104.95h104.95zM39.808 280.029h-39.808v144.758h144.758v-39.808h-104.95zM512 280.029h-39.808v104.95h-104.95v39.808h144.758zM512 14.071h-144.758v39.808h104.95v104.95h39.808z" />
<glyph unicode="&#xe661;" glyph-name="local_server" d="M395.607 427.946c-59.627 11.284-133.555 10.993-138.793 10.993-7.916 0-178.57-0.492-207.678-38.82-3.303-1.7-5.581-5.1-5.581-9.067 0-2.381 0.476-4.649 1.357-6.81v-76.544c0-39.148 124.631-47.995 182.861-49.992zM298.517 363.905c0 0-16.389-2.949-43.044-2.949-110.172 0-176.537 16.85-189.424 28.063 8.77 11.161 76.047 29.435 190.771 29.435 52.946 0 64.313 0.64 95.949-4.649zM214.462 278.268c-2.765 0 11.228-0.118 8.519-0.103-113.209 0.875-152.412 19.123-157.583 29.901v58.225c52.721-25.447 183.173-25.81 190.075-25.81 2.734 0 19.574-0.041 19.574-0.041zM209.741 235.669c-89.17 4.234-139.853 19.906-144.353 29.378-0.195 5.478-4.7 9.866-10.23 9.866-5.653 0-10.24-4.588-10.24-10.24v-88.73c0-19.118 29.726-31.017 66.923-38.41zM106.010 159.622c-37.959 6.492-37.734 10.68-40.617 16.681v64.276c27.894-14.055 56.617-18.222 99.149-21.31zM93.291 119.005c-13.891 4.306-17.116 6.154-27.904 12.949-0.195 5.483-4.7 9.866-10.23 9.866-5.653 0-10.24-4.587-10.24-10.24v-62.495h1.869zM58.731 105.447v14.408c6.421-3.692 6.421-3.692 10.24-5.125zM225.556 96.815h220.857v235.945zM450.969 370.121c10.988 0 19.886-8.889 19.886-19.876v-263.373c0-10.983-8.899-19.87-19.886-19.87h-130.243v-33.551c0-2.192-0.343-4.281-0.983-6.211h59.382c7.562 0 13.666-6.108 13.666-13.671 0-7.552-6.113-13.66-13.671-13.66h-245.98c-7.552 0-13.665 6.108-13.665 13.66 0 3.779 1.541 7.209 4.025 9.702 2.432 2.442 5.863 3.968 9.641 3.968h59.382c-0.645 1.93-0.988 4.019-0.988 6.211v33.551h-30.407zM446.872 441.577l16.638-15.928-398.088-415.819-16.638 15.928 398.088 415.819z" />
<glyph unicode="&#xe662;" glyph-name="reset" d="M389.622 198.949c0-76.8-59.94-132.193-133.622-132.193-73.677 0-133.617 60.267-133.617 133.361s59.94 131.952 133.617 131.952h5.12v-34.452l109.307 63.125-109.307 63.114v-40.586h-5.12c-101.596 0-184.249-82.898-184.249-183.916s82.652-183.23 184.249-183.23c101.601 0 184.249 90.665 184.249 182.825h-50.627z" />
<glyph unicode="&#xe663;" glyph-name="number" horiz-adv-x="448" d="M448 283.429v64h-80.062l16 128h-64l-16-128h-127.969l16 128h-64l-16-128h-111.969v-64h103.972l-15.969-128h-88.002v-64h80l-16-128h64l16 128h128l-16.030-128h64.030l16 128h112v64h-103.998l15.938 128h88.059zM280.002 155.429h-128l15.97 128h127.97l-15.938-128z" />
<glyph unicode="&#xe664;" glyph-name="string" d="M24.064 45.349h456.192v373.248h-207.36v-41.472h165.888v-290.299h-373.248v124.406h-41.472zM189.952 460.069h-165.888v-82.944h41.472v41.472h41.467v-124.416h-41.467v-41.472h124.416v41.472h-41.472v124.416h41.472v-41.472h41.472v82.944z" />
<glyph unicode="&#xe665;" glyph-name="local" d="M69.438 132.010h380.549v248.464h-380.549v-248.464zM44.989 385.445c0 10.983 8.893 19.876 19.876 19.876h389.688c10.983 0 19.881-8.894 19.881-19.876v-263.373c0-10.983-8.899-19.876-19.881-19.876h-130.248v-33.546c0-2.186-0.343-4.275-0.988-6.211h59.382c7.557 0 13.666-6.113 13.666-13.666s-6.113-13.666-13.671-13.666h-245.975c-7.552 0-13.665 6.113-13.665 13.666 0 3.774 1.541 7.204 4.025 9.692 2.432 2.442 5.863 3.973 9.641 3.973h59.382c-0.645 1.935-0.994 4.024-0.994 6.211v33.546h-130.243c-10.983 0-19.876 8.894-19.876 19.876v263.373z" />
<glyph unicode="&#xe666;" glyph-name="server" d="M256.676 442.758c-7.916 0-178.57-0.492-207.673-38.82-3.303-1.7-5.581-5.1-5.581-9.067 0-2.381 0.471-4.649 1.352-6.815v-76.534c0-49.997 203.244-50.57 211.901-50.57 8.647 0 211.901 0.573 211.901 50.57v80.666c0 49.991-203.254 50.57-211.901 50.57zM256.676 422.278c110.157 0 176.537-16.839 189.42-28.063-8.765-11.161-76.037-29.435-190.766-29.435-110.167 0-176.542 16.845-189.424 28.063 8.77 11.162 76.042 29.435 190.771 29.435zM448.098 311.886c-5.294-11.029-73.139-30.449-191.421-30.449s-186.127 19.42-191.422 30.449v58.224c52.721-25.446 183.178-25.81 190.075-25.81 7.015 0 141.968 0.379 192.763 27.177v-59.591zM458.337 278.734c-5.529 0-10.035-4.382-10.23-9.866-5.243-11.024-73.093-30.464-191.432-30.464s-186.184 19.435-191.431 30.464c-0.195 5.483-4.7 9.866-10.23 9.866-5.653 0-10.24-4.588-10.24-10.24v-88.729c0-49.997 203.244-50.57 211.901-50.57 8.647 0 211.901 0.574 211.901 50.57v88.729c0 5.658-4.587 10.24-10.24 10.24zM448.098 180.123c-5.294-11.029-73.134-30.449-191.421-30.449s-186.127 19.42-191.422 30.449v64.276c51.809-26.102 184.464-26.476 191.422-26.476s139.612 0.374 191.422 26.476v-64.276zM458.337 145.639c-5.529 0-10.035-4.382-10.23-9.866-5.243-11.024-73.093-30.464-191.432-30.464s-186.184 19.435-191.431 30.464c-0.195 5.483-4.7 9.866-10.23 9.866-5.653 0-10.24-4.587-10.24-10.24v-88.73c0-49.997 203.244-50.57 211.901-50.57 8.647 0 211.901 0.574 211.901 50.57v88.73c0 5.658-4.587 10.24-10.24 10.24zM448.098 47.033c-5.294-11.029-73.139-30.449-191.421-30.449s-186.127 19.42-191.422 30.449v64.272c51.809-26.102 184.464-26.476 191.422-26.476s139.612 0.374 191.422 26.476v-64.272z" />
<glyph unicode="&#xe667;" glyph-name="boolean" d="M89.6 53.029h332.8v332.8h-332.8v-332.8zM115.2 360.229h281.6v-281.6h-281.6v281.6zM230.4 186.333l-51.2 51.2-18.105-18.104 69.304-69.305 120.499 120.505-18.099 18.104z" />
<glyph unicode="&#xe668;" glyph-name="vote" d="M247.495 56.439c-38.246 0-191.017 119.511-191.017 224.046 0 51.686 24.96 94.137 65.136 110.776 39.582 16.379 86.098 4.485 125.88-31.785 39.788 36.275 86.277 48.185 125.885 31.785 40.182-16.64 65.142-59.090 65.142-110.776 0-9.406-1.229-19.267-3.64-29.291-1.209-5.028-6.282-8.1-11.289-6.912-5.017 1.209-8.11 6.262-6.902 11.285 2.068 8.596 3.098 16.973 3.098 24.919 0 43.976-20.531 79.795-53.57 93.481-34.539 14.32-76.462 1.582-112.108-34.043-3.497-3.512-9.728-3.512-13.225 0-35.635 35.63-77.558 48.348-112.112 34.043-33.040-13.686-53.571-49.505-53.571-93.481 0-96.819 147.507-205.327 172.293-205.327 5.171 0 9.354-4.193 9.354-9.36s-4.183-9.36-9.354-9.36zM446.111 154.947h-42.378v42.363c0 5.202-4.219 9.426-9.421 9.426h-43.94c-5.212 0-9.421-4.224-9.421-9.426v-42.358h-42.368c-5.212 0-9.411-4.224-9.411-9.426v-43.945c0-5.202 4.199-9.426 9.411-9.426h42.368v-42.363c0-5.202 4.209-9.416 9.421-9.416h43.94c5.202 0 9.421 4.214 9.421 9.416v42.363h42.378c5.192 0 9.411 4.224 9.411 9.426v43.945c0 5.197-4.219 9.421-9.411 9.421z" />
<glyph unicode="&#xe669;" glyph-name="pause" d="M176 480h-96c-8.848 0-16-7.168-16-16v-480c0-8.848 7.152-16 16-16h96c8.848 0 16 7.152 16 16v480c0 8.832-7.152 16-16 16zM432 480h-96c-8.848 0-16-7.168-16-16v-480c0-8.848 7.152-16 16-16h96c8.848 0 16 7.152 16 16v480c0 8.832-7.152 16-16 16z" />
<glyph unicode="&#xe66a;" glyph-name="next" d="M313.677 241.715l-186.24 116.992c-13.773 9.011-25.037 2.381-25.037-14.771v-227.098c0-17.152 11.264-23.757 25.037-14.745l186.24 116.966c0 0 6.733 4.736 6.733 11.315s-6.733 11.341-6.733 11.341zM371.2 378.982c-22.733 0-38.4-6.989-38.4-29.721v-237.721c0-22.759 15.667-29.747 38.4-29.747s38.4 6.989 38.4 29.747v237.721c0 22.733-15.667 29.721-38.4 29.721z" />
<glyph unicode="&#xe66b;" glyph-name="wimi" horiz-adv-x="612" d="M-0.866 398.366c0 0 397.971 123.010 507.269 60.139 109.287-62.871 105.66-263.331 106.747-313.197 1.124-51.94-25.414-73.805-43.208-95.677-17.794-21.867-272.845-119.971-451.349-73.805-135.345 35.012-119.459 422.539-119.459 422.539zM186.014 69.757c112.64-29.133 273.587 32.775 284.817 46.574 11.231 13.803 27.976 27.599 27.269 60.377-0.687 31.464 1.601 157.964-67.363 197.637-68.971 39.675-320.104-37.951-320.104-37.951s-10.023-244.545 75.382-266.635z" />
<glyph unicode="&#xe66c;" glyph-name="mobile" d="M368 480h-224c-26.4 0-48-21.6-48-48v-416c0-26.4 21.6-48 48-48h224c26.4 0 48 21.6 48 48v416c0 26.4-21.6 48-48 48zM192 456h128v-16h-128v16zM256 0c-17.673 0-32 14.327-32 32s14.327 32 32 32 32-14.327 32-32-14.327-32-32-32zM384 96h-256v320h256v-320z" />
<glyph unicode="&#xe66d;" glyph-name="package" d="M258.368 458.667l-237.035-116.309v-235.392l234.667-138.965 234.667 138.965v235.392l-232.298 116.31zM234.667 30.208l-170.667 101.077v142.4l170.667-84.331v-159.147zM73.898 317.739l184.832 93.141 184.832-93.141-184.832-91.328-184.832 91.328zM448 131.285l-192-113.707v164.736l192 91.371v-142.4z" />
<glyph unicode="&#xe66e;" glyph-name="ranking" d="M390.565 359.281h-62.036v37.983h-196.339v-37.986h-62.043c-5.754 0.004-10.415-4.665-10.415-10.411v-9.596c0-42.618 31.558-77.983 72.534-83.975 1.661-44.764 38.191-80.585 83.213-81.127v-4.95c0-46.497-37.642-84.207-84.108-84.317v-12.971h197.977v12.971c-46.471 0.11-84.12 37.824-84.12 84.317v4.95c45.041 0.543 81.567 36.363 83.217 81.127 40.983 5.993 72.529 41.358 72.529 83.976v9.595c0.004 5.746-4.646 10.415-10.411 10.415zM132.191 276.431c-29.142 5.764-51.245 31.311-51.621 62.020h51.621v-62.020zM269.475 238.267l-39.113 26.067-39.12-26.067 12.705 45.253-36.883 29.154 46.975 1.907 16.323 44.085 16.327-44.085 46.968-1.907-36.883-29.154 12.702-45.253zM328.529 276.431v62.020h51.621c-0.372-30.705-22.475-56.255-51.621-62.020z" />
<glyph unicode="&#xe66f;" glyph-name="girl" d="M230.089 374.242c-82.728 0-149.792-67.068-149.792-149.792s67.064-149.785 149.792-149.785c82.724 0 149.792 67.060 149.792 149.784s-67.068 149.792-149.792 149.792zM230.089 97.22c-64.341 0-116.963 50.017-121.184 113.288 46.429 0.068 140.011 12.201 200.389 100.28 25.88-22.281 42.28-55.25 42.28-92.080 0.004-67.095-54.389-121.488-121.484-121.488zM315.195 184.453c0-9.166-7.43-16.596-16.596-16.596s-16.596 7.43-16.596 16.596c0 9.166 7.43 16.596 16.596 16.596s16.596-7.43 16.596-16.596zM178.597 184.453c0-9.166-7.43-16.596-16.596-16.596s-16.596 7.43-16.596 16.596c0 9.166 7.43 16.596 16.596 16.596s16.596-7.43 16.596-16.596zM230.089 148.712c10.577 0 19.145 8.572 19.145 19.149h-38.294c0-10.582 8.572-19.149 19.149-19.149zM398.036 361.34c0-18.332-14.861-33.193-33.193-33.193s-33.193 14.861-33.193 33.193c0 18.332 14.861 33.193 33.193 33.193s33.193-14.861 33.193-33.193zM129.149 361.348c0 18.326-14.859 33.185-33.197 33.185-18.326 0-33.189-14.859-33.189-33.185 0-18.341 14.863-33.2 33.189-33.2 18.337 0 33.197 14.859 33.197 33.2z" />
<glyph unicode="&#xe670;" glyph-name="hd" horiz-adv-x="622" d="M77.573 419.136h75.695l-28.481-146.003h94.683l28.226 146.003h75.696l-74.669-383.091h-75.696l33.101 170.378h-94.426l-33.102-170.378h-75.695l74.669 383.091zM455.531 350.885l-47.726-246.585h24.632c19.158 0 35.324 3.764 48.496 11.291s23.436 18.817 30.791 33.868c8.895 18.133 16.080 39.685 21.554 64.661 5.645 25.146 8.466 48.496 8.466 70.048 0 22.58-5.389 39.344-16.164 50.292-10.607 10.948-26.94 16.422-49.009 16.422h-21.041zM393.694 419.136h80.826c48.753 0 85.188-10.52 109.307-31.562s36.178-52.772 36.18-95.194c0-14.882-1.199-30.791-3.591-47.726-2.224-16.764-5.73-34.811-10.519-54.141-6.33-25.832-13.942-47.726-22.836-65.688s-19.501-32.844-31.817-44.649c-16.081-15.738-35.324-27.027-57.732-33.869s-52.344-10.264-89.808-10.264h-84.674l74.669 383.091z" />
<glyph unicode="&#xe671;" glyph-name="lab" d="M478.145 77.759l-158.145 263.512v106.729h16c8.8 0 16 7.2 16 16s-7.2 16-16 16h-160c-8.8 0-16-7.2-16-16s7.2-16 16-16h16v-106.729l-158.144-263.512c-36.221-60.367-8.256-109.759 62.144-109.759h320c70.4 0 98.365 49.392 62.145 109.759zM120.519 160l103.481 172.469v115.531h64v-115.531l103.482-172.469h-270.963z" />
<glyph unicode="&#xe672;" glyph-name="games" d="M512 188.16v143.36h-71.68v76.8h-76.8v71.68h-215.040v-71.68h-76.8v-76.8h-71.68v-143.36h71.68v-71.68h-71.68v-148.48h71.68v71.68h148.48v-71.68h71.68v71.68h148.48v-71.68h71.68v148.48h-71.68v71.68h71.68zM222.72 190.72h-71.68v148.48h71.68v-148.48zM371.2 190.72h-76.8v148.48h76.8v-148.48z" />
<glyph unicode="&#xe673;" glyph-name="half" horiz-adv-x="605" d="M0 480v-512h605.091v512h-605.091zM558.545 14.546h-512l-0.020 186.452h512.020v-186.452zM558.545 246.974h-512.019l0.019 186.481h512v-186.481z" />
<glyph unicode="&#xe674;" glyph-name="max" horiz-adv-x="605" d="M0 480v-512h605.091v512h-605.091zM558.545 14.546h-512v418.162h512v-418.162z" />
<glyph unicode="&#xe675;" glyph-name="min" horiz-adv-x="605" d="M0 14.546v-46.546h605.091v46.546h-605.091z" />
<glyph unicode="&#xe800;" glyph-name="zoom-out" d="M213.333 448q39 0 74.583-15.25t61.25-40.916 40.916-61.25 15.25-74.584q0-33.5-10.916-64.167t-31.084-55.666l121.166-121q6.166-6.166 6.166-15.166 0-9.166-6.084-15.25t-15.25-6.084q-9 0-15.166 6.166l-121 121.166q-25-20.166-55.666-31.084t-64.166-10.916q-39 0-74.584 15.25t-61.25 40.916-40.916 61.25-15.25 74.584 15.25 74.584 40.916 61.25 61.25 40.916 74.584 15.25zM213.333 405.333q-30.333 0-58-11.834t-47.666-31.833-31.834-47.667-11.834-58 11.834-58 31.834-47.666 47.666-31.834 58-11.834 58 11.834 47.666 31.834 31.834 47.666 11.834 58-11.834 58-31.834 47.667-47.666 31.833-58 11.834zM149.333 277.333h128q8.834 0 15.084-6.25t6.25-15.084-6.25-15.084-15.084-6.25h-128q-8.834 0-15.084 6.25t-6.25 15.084 6.25 15.084 15.084 6.25z" />
<glyph unicode="&#xe801;" glyph-name="zoom-in" d="M213.333 448q39 0 74.583-15.25t61.25-40.916 40.916-61.25 15.25-74.584q0-33.5-10.916-64.167t-31.084-55.666l121.166-121q6.166-6.166 6.166-15.166 0-9.166-6.084-15.25t-15.25-6.084q-9 0-15.166 6.166l-121 121.166q-25-20.166-55.666-31.084t-64.166-10.916q-39 0-74.584 15.25t-61.25 40.916-40.916 61.25-15.25 74.584 15.25 74.584 40.916 61.25 61.25 40.916 74.584 15.25zM213.333 405.333q-30.333 0-58-11.834t-47.666-31.833-31.834-47.667-11.834-58 11.834-58 31.834-47.666 47.666-31.834 58-11.834 58 11.834 47.666 31.834 31.834 47.666 11.834 58-11.834 58-31.834 47.667-47.666 31.833-58 11.834zM213.333 341.333q8.833 0 15.083-6.25t6.25-15.084v-42.666h42.666q8.834 0 15.084-6.25t6.25-15.084-6.25-15.084-15.084-6.25h-42.666v-42.667q0-8.834-6.25-15.084t-15.084-6.25-15.084 6.25-6.25 15.084v42.667h-42.666q-8.834 0-15.084 6.25t-6.25 15.084 6.25 15.084 15.084 6.25h42.666v42.666q0 8.834 6.25 15.084t15.084 6.25z" />
<glyph unicode="&#xe900;" glyph-name="grid" d="M21.334 426.667v-448h447.574v448h-447.574zM426.283 277.333h-106.582v106.666h106.582v-106.666zM426.283 149.333h-106.582v106.667h106.582v-106.667zM426.283 21.333h-106.582v106.666h106.582v-106.666zM63.958 128h106.582v-106.666h-106.582v106.666zM63.958 256h106.582v-106.667h-106.582v106.667zM63.958 384h106.582v-106.666h-106.582v106.666zM298.411 277.333h-106.56v106.666h106.582v-106.666zM298.411 149.333h-106.56v106.667h106.582v-106.667zM191.851 128h106.582v-106.666h-106.582v106.666z" />
<glyph unicode="&#xe901;" glyph-name="glossary" horiz-adv-x="710" d="M671.408 375.083c-2.236 8.457-24.611 31.445-60.040 47.486v25.565c0 0.784-0.091 1.555-0.284 2.305-1.93 7.31-10.444 9.786-19.378 11.375-48.223 8.594-170.836-0.171-234.974-78.817-36.031 46.645-86.786 72.108-144.249 72.108-0.556 0-1.135 0-1.68-0.012-67.407-0.567-136.042-36.326-170.767-88.965-0.976-1.487-1.487-3.224-1.487-5.006v-361.173c0-3.712 2.236-7.050 5.699-8.423 3.394-1.396 7.356-0.545 9.933 2.135 41.502 43.262 140.923 51.629 213.36 37.552 42.105-8.185 72.414-23.714 79.157-40.526 0.136-0.329 0.352-0.591 0.534-0.909 0.091-0.17 0.091-0.363 0.204-0.534 0.113-0.193 0.284-0.318 0.397-0.488 0.227-0.295 0.443-0.567 0.693-0.829 0.351-0.375 0.726-0.715 1.135-1.022 0.238-0.193 0.488-0.385 0.772-0.556 0.466-0.284 0.976-0.511 1.487-0.704 0.261-0.091 0.511-0.227 0.772-0.284 0.772-0.227 1.578-0.351 2.418-0.363 0 0 0 0 0.023 0v0 0c0.284 0 0.601 0.091 0.863 0.125 0.227-0.023 0.397-0.125 0.624-0.125 2.884 0 5.37 1.453 7.027 3.576 104.279 62.674 243.091 41.73 294.969 16.154 2.815-1.397 6.164-1.215 8.821 0.443s4.279 4.563 4.279 7.708v359.89c-0.011 0.772-0.102 1.544-0.307 2.315zM271.014 49.033c-71.188 13.838-162.832 7.322-214.313-29.379v338.697c31.967 46.589 93.585 78.067 154.273 78.578 39.425 0.227 94.3-12.055 136.53-72.119v-346.473c-21.012 17.471-54.762 26.473-76.49 30.696zM653.54 26.68c-60.347 23.282-187.069 37.882-287.874-16.086v354.147c62.322 85.65 201.293 86.479 227.549 78.351v-26.404c0-0.079 0-0.148 0-0.216v-317.661c-46.111 4.927-121.148-4.575-168.577-26.416-4.541-2.1-6.538-7.493-4.438-12.056 2.089-4.552 7.47-6.55 12.044-4.461 58.406 26.915 131.683 31.048 168.19 23.442 2.679-0.556 5.449 0.113 7.583 1.851 2.134 1.726 3.348 4.314 3.348 7.050v314.164c24.055-12.317 38.665-26.87 42.173-31.853l0-343.85z" />
<glyph unicode="&#xe902;" glyph-name="options" horiz-adv-x="410" d="M255.95 357.13c0-28.277-22.923-51.2-51.2-51.2s-51.2 22.923-51.2 51.2c0 28.277 22.923 51.2 51.2 51.2s51.2-22.923 51.2-51.2zM255.95 224.010c0-28.277-22.923-51.2-51.2-51.2s-51.2 22.923-51.2 51.2c0 28.277 22.923 51.2 51.2 51.2s51.2-22.923 51.2-51.2zM255.95 90.889c0-28.277-22.923-51.2-51.2-51.2s-51.2 22.923-51.2 51.2c0 28.277 22.923 51.2 51.2 51.2s51.2-22.923 51.2-51.2z" />
<glyph unicode="&#xe903;" glyph-name="animation" d="M485.36 56.88c-2.048 3.536-8.608 4.624-19.696 3.232-20.4-2.64-35.216 4.016-44.448 20.016-6.992 12.096-8.8 24.256-5.424 36.48s13.376 29.664 29.984 52.352l10.384 14.464c30.848 42.608 37.168 79.664 18.976 111.2-18.512 32.096-72 29.392-110.448 12.896-31.104 64.144-96.64 108.48-172.688 108.48-106.048 0-192-85.968-192-192s85.952-192 192-192c106.032 0 192 85.968 192 192 0 23.504-4.432 45.936-12.16 66.736 12.976 4.656 28.496 8.032 43.136 8.576 19.232 0.704 36.64-3.328 43.552-15.296 15.408-26.704 7.968-58.256-22.32-94.608l-6.208-7.456c-35.424-42.512-43.888-79.744-25.456-111.712 7.456-12.896 19.312-22.096 35.6-27.632 16.288-5.52 30.064-4.992 41.36 1.536 5.6 3.232 6.896 7.488 3.856 12.736zM104 183.008c-22.096 0-40 17.904-40 40 0 22.080 17.904 40 40 40s40-17.904 40-40c0-22.096-17.904-40-40-40zM192 95.008c-22.096 0-40 17.904-40 40s17.904 40 40 40 40-17.904 40-40-17.904-40-40-40zM176.32 223.008c0 8.832 7.184 16 16.016 16s16-7.152 16-16c0-8.848-7.168-16-16-16s-16.016 7.152-16.016 16zM192 271.008c-22.096 0-40 17.904-40 40 0 22.080 17.904 40 40 40s40-17.904 40-40c0-22.096-17.904-40-40-40zM280 183.008c-22.096 0-40 17.904-40 40 0 22.080 17.904 40 40 40s40-17.904 40-40c0-22.096-17.904-40-40-40z" />
<glyph unicode="&#xe904;" glyph-name="pay-mobile" horiz-adv-x="429" d="M287.454 59.952h-236.863c-0.291 0-0.553-0.069-0.844-0.083v341.906c0 5.909 4.801 10.711 10.711 10.711h216.286c5.909 0 10.697-4.816 10.697-10.711v-6.476h21.435v14.433c0 17.698-14.433 32.132-32.132 32.132h-216.286c-17.712 0-32.132-14.433-32.132-32.132v-368.336c0-17.712 14.419-32.118 32.132-32.118h216.286c17.699 0 32.132 14.405 32.132 32.118v162.069h-21.435v-143.512zM168.614 18.854c-9.396 0-17.006 7.611-17.006 17.007s7.611 17.007 17.006 17.007c9.41 0 17.006-7.625 17.006-17.007s-7.611-17.007-17.006-17.007zM399.277 383.979h-202.13c-6.49 0-11.749-5.272-11.749-11.762v-139.969c0-6.49 5.258-11.748 11.749-11.748h13.547l0.083-57.704 52.363 57.704h136.15c6.49 0 11.762 5.258 11.762 11.749v139.97c-0.041 6.49-5.3 11.762-11.776 11.762zM304.418 254.679v-17.062h-13.575v16.066c-10.433 0.319-20.868 3.321-26.832 7.265l4.469 15.567c6.462-3.778 15.748-7.265 25.835-7.265 10.433 0 17.56 5.134 17.56 13.077 0 7.458-5.798 12.246-18.058 16.73-17.38 6.268-28.644 14.226-28.644 29.64 0 14.226 9.95 25.171 26.68 28.146v16.218h13.561v-15.388c10.433-0.332 17.574-2.809 22.846-5.48l-4.469-15.236c-3.957 1.827-11.236 5.632-22.514 5.632-11.596 0-15.733-5.978-15.733-11.583 0-6.795 5.964-10.613 20.037-16.232 18.556-6.974 26.817-15.899 26.817-30.651 0-14.059-9.769-26.472-27.98-29.447z" />
<glyph unicode="&#xe905;" glyph-name="script" horiz-adv-x="645" d="M630.006 107.887c-15.289 26.483-43.804 42.925-74.398 42.925-12.768 0-25.33-3.041-36.857-8.551l-112.719 141.216c11.23 12.729 19.562 27.93 24.076 44.839 7.724 28.822 3.752 58.913-11.164 84.736-19.884 34.436-56.961 55.833-96.767 55.833-19.495 0-38.758-5.174-55.718-14.981-25.847-14.903-44.334-38.99-52.044-67.788-7.736-28.822-3.778-58.901 11.139-84.722 3.726-6.468 8.241-12.303 13.092-17.788l-112.898-141.344c-11.527 5.496-24.076 8.536-36.844 8.536-30.594 0-59.108-16.442-74.412-42.923-11.45-19.858-14.502-42.99-8.564-65.137 5.924-22.148 20.142-40.66 39.974-52.096 13.065-7.542 27.879-11.527 42.871-11.527 30.596 0 59.095 16.442 74.412 42.922 11.448 19.846 14.489 42.975 8.564 65.137-3.078 11.486-8.409 21.952-15.576 30.996l112.731 141.152c10.53-5.731 21.979-9.716 33.932-11.85v-99.030c-8.201-1.916-16.157-4.904-23.505-9.147-40.996-23.661-55.084-76.276-31.423-117.257 15.289-26.48 43.803-42.91 74.397-42.91 14.995 0 29.82 3.984 42.859 11.514 19.846 11.462 34.049 29.961 39.987 52.108 5.939 22.148 2.898 45.281-8.577 65.137-11.979 20.739-32.084 35.188-54.932 40.531v99.029c11.863 2.109 23.353 6.067 34.012 11.876l112.704-141.191c-21.099-26.781-25.096-64.8-7.038-96.094 15.291-26.48 43.805-42.91 74.398-42.91 14.995 0 29.821 3.984 42.859 11.514 19.846 11.462 34.051 29.961 39.988 52.108 5.94 22.148 2.913 45.278-8.563 65.137z" />
<glyph unicode="&#xe906;" glyph-name="level" d="M136.19-8.756c-14.505 0-29.012 6.594-42.199 14.507-23.737 13.187-36.925 35.607-36.925 61.979h55.148c2.791-13.185 3.386-17.266 15.74-25.824 8.839-6.125 25.83-0.644 32.643 2.716l273.861 142.048c15.825 7.912 22.021 17.233 22.021 35.697 0 17.143-13.407 27.416-27.914 35.327l-282 146.156c0 0-10.411 6.242-20.703 3.954-6.281-1.396-11.786-10.388-11.786-23.576h-57.010c0 13.187 13.189 44.836 35.607 58.024 23.737 14.505 54.068 14.505 76.487 2.637l304.627-158.248c23.737-11.868 38.244-35.607 38.244-63.3s-14.507-52.749-39.562-65.938l-301.991-158.248c-10.55-5.275-22.418-7.912-34.288-7.912zM134.469 219.808l-50.102 65.875-48.848-67.13-35.551 30.275 84.399 105.499 84.398-105.499zM57.066 306.083h54.372v-192.222h-54.373v192.222z" />
<glyph unicode="&#xe907;" glyph-name="warning_light" horiz-adv-x="592" d="M577.307 10.782l-271.159 442.661c-2.542 4.163-9.413 4.163-11.964 0l-271.166-442.661c-1.311-2.161-1.369-4.869-0.137-7.074 1.247-2.218 3.587-3.587 6.115-3.587h542.332c2.535 0 4.869 1.368 6.115 3.587 1.231 2.204 1.181 4.913-0.136 7.074zM50.401 18.586l249.768 407.716 249.755-407.716h-499.522zM293.161 301.913v-171.185c0-3.875 3.134-7.009 7.008-7.009 3.875 0 7.008 3.134 7.008 7.009v171.185c0 3.875-3.133 7.008-7.008 7.008-3.875-0.007-7.008-3.14-7.008-7.008zM300.169 91.74c-3.875 0-7.008-3.134-7.008-7.008v-12.101c0-3.875 3.134-7.008 7.008-7.008 3.875 0 7.008 3.133 7.008 7.008v12.101c0 3.868-3.132 7.008-7.008 7.008z" />
<glyph unicode="&#xe908;" glyph-name="error" horiz-adv-x="514" d="M260.192-22.332c132.284 0 244.044 111.755 244.044 244.044s-111.76 244.044-244.044 244.044-244.044-111.755-244.044-244.044c0-132.289 111.76-244.044 244.044-244.044zM260.192 442.514c119.687 0 220.802-101.115 220.802-220.802s-101.115-220.802-220.802-220.802-220.802 101.116-220.802 220.802 101.115 220.802 220.802 220.802zM378.538 351.485l-118.094-118.088-118.094 118.088-11.435-11.435 118.087-118.094-118.087-118.087 11.435-11.441 118.094 118.093 118.094-118.093 11.441 11.441-118.093 118.087 118.093 118.094z" />
<glyph unicode="&#xe909;" glyph-name="info" horiz-adv-x="514" d="M260.192 76.448c6.415 0 11.621 5.206 11.621 11.621v151.075c0 6.415-5.206 11.621-11.621 11.621s-11.621-5.206-11.621-11.621v-151.075c0-6.414 5.207-11.621 11.621-11.621zM260.192 303.060c6.415 0 11.621 5.207 11.621 11.622v29.053c0 6.415-5.206 11.621-11.621 11.621s-11.621-5.207-11.621-11.621v-29.053c0-6.415 5.207-11.622 11.621-11.622zM260.192-22.332c132.284 0 244.044 111.755 244.044 244.044s-111.76 244.044-244.044 244.044-244.044-111.755-244.044-244.044c0-132.289 111.76-244.044 244.044-244.044zM260.192 442.514c119.687 0 220.802-101.115 220.802-220.802s-101.115-220.802-220.802-220.802-220.802 101.116-220.802 220.802 101.115 220.802 220.802 220.802z" />
<glyph unicode="&#xe90a;" glyph-name="ok" horiz-adv-x="680" d="M81.321 186.497l151.976-151.976-17.27-17.27-151.976 151.976 17.27 17.27zM598.679 432.103l17.27-17.27-398.937-398.937-17.27 17.27 398.937 398.937z" />
<glyph unicode="&#xea82;" glyph-name="share" d="M432 128c-22.58 0-42.96-9.369-57.506-24.415l-215.502 107.751c0.657 4.126 1.008 8.353 1.008 12.664s-0.351 8.538-1.008 12.663l215.502 107.751c14.546-15.045 34.926-24.414 57.506-24.414 44.183 0 80 35.817 80 80s-35.817 80-80 80-80-35.817-80-80c0-4.311 0.352-8.538 1.008-12.663l-215.502-107.752c-14.546 15.045-34.926 24.415-57.506 24.415-44.183 0-80-35.818-80-80 0-44.184 35.817-80 80-80 22.58 0 42.96 9.369 57.506 24.414l215.502-107.751c-0.656-4.125-1.008-8.352-1.008-12.663 0-44.184 35.817-80 80-80s80 35.816 80 80c0 44.182-35.817 80-80 80z" />
<glyph unicode="&#xf00c;" glyph-name="check" d="M477.428 313.714q0-11.428-8-19.428l-245.714-245.714q-8-8-19.428-8t-19.428 8l-142.286 142.286q-8 8-8 19.428t8 19.428l38.857 38.857q8 8 19.428 8t19.428-8l84-84.285 187.429 187.714q8 8 19.428 8t19.428-8l38.857-38.857q8-8 8-19.428z" />
<glyph unicode="&#xf023;" glyph-name="lock" horiz-adv-x="329" d="M91.428 256h146.286v54.857q0 30.286-21.428 51.714t-51.714 21.428-51.715-21.428-21.428-51.714v-54.857zM329.143 228.572v-164.571q0-11.428-8-19.428t-19.428-8h-274.286q-11.428 0-19.428 8t-8 19.428v164.571q0 11.429 8 19.429t19.428 8h9.143v54.857q0 52.572 37.715 90.286t90.285 37.714 90.285-37.714 37.714-90.286v-54.857h9.143q11.428 0 19.428-8t8-19.428z" />
<glyph unicode="&#xf02b;" glyph-name="tag" d="M128 347.429q0 15.143-10.715 25.857t-25.857 10.715-25.857-10.715-10.715-25.857 10.715-25.857 25.857-10.714 25.857 10.714 10.715 25.857zM432.857 182.857q0-15.143-10.572-25.714l-140.286-140.571q-11.143-10.572-26-10.572-15.143 0-25.714 10.572l-204.286 204.571q-10.857 10.572-18.428 28.857t-7.572 33.428v118.857q0 14.857 10.857 25.715t25.715 10.857h118.857q15.143 0 33.428-7.572t29.143-18.428l204.285-204q10.572-11.143 10.572-26z" />
<glyph unicode="&#xf07c;" glyph-name="folder-open" horiz-adv-x="549" d="M536.857 203.429q0-8.857-8.857-18.857l-96-113.143q-12.286-14.572-34.428-24.714t-41-10.143h-310.857q-9.715 0-17.285 3.714t-7.572 12.286q0 8.857 8.857 18.857l96 113.143q12.286 14.572 34.428 24.714t41 10.143h310.857q9.715 0 17.285-3.714t7.572-12.286zM438.857 301.714v-45.714h-237.714q-26.857 0-56.286-13.572t-46.857-34.143l-97.715-114.857q0 1.143-0.143 3.572t-0.143 3.572v274.286q0 26.286 18.857 45.143t45.143 18.857h91.428q26.285 0 45.143-18.857t18.857-45.143v-9.143h155.429q26.286 0 45.143-18.857t18.857-45.143z" />
<glyph unicode="&#xf13e;" glyph-name="unlock-alt" horiz-adv-x="329" d="M301.714 256q11.428 0 19.428-8t8-19.428v-164.571q0-11.428-8-19.428t-19.428-8h-274.286q-11.428 0-19.428 8t-8 19.428v164.571q0 11.429 8 19.429t19.428 8h9.143v91.428q0 52.857 37.572 90.428t90.428 37.572 90.429-37.572 37.572-90.428q0-7.428-5.428-12.857t-12.857-5.428h-18.286q-7.428 0-12.857 5.428t-5.429 12.857q0 30.286-21.428 51.715t-51.714 21.428-51.715-21.428-21.428-51.715v-91.428h210.285z" />
</font>
</defs>
</svg>
