<?xml version="1.0" encoding="utf-8"?>
<!-- Generator: Adobe Illustrator 15.0.0, SVG Export Plug-In . SVG Version: 6.00 Build 0)  -->
<!DOCTYPE svg PUBLIC "-//W3C//DTD SVG 1.1//EN" "http://www.w3.org/Graphics/SVG/1.1/DTD/svg11.dtd">
<svg version="1.1" xmlns="http://www.w3.org/2000/svg" xmlns:xlink="http://www.w3.org/1999/xlink" x="0px" y="0px"
	 width="442.244px" height="380.245px" viewBox="74.916 59.915 442.244 380.245"
	 enable-background="new 74.916 59.915 442.244 380.245" xml:space="preserve">
<g id="Capa_1">
	<path fill="none" d="M248.202,367.88c-5.683,0-9.982,5.068-8.984,10.827c0.614,3.302,3.071,6.066,6.22,7.065
		c6.067,1.843,11.902-2.764,11.902-8.754C257.34,372.026,253.193,367.88,248.202,367.88z"/>
	<path fill="none" d="M230.694,173.447h0.076h34.632h0.077c0,0,1.305-0.921,1.305-1.997c0-1.075-1.305-1.997-1.305-1.997h-0.077
		h-34.632h-0.076c0,0-1.306,0.922-1.306,1.997C229.465,172.603,230.694,173.447,230.694,173.447z"/>
	<path fill="none" d="M317.927,245.938v-66.5c0,0,0-0.077-0.077-0.077H178.323c0,0-0.077,0-0.077,0.077v181.225
		c0,0,0,0.076,0.077,0.076l118.103,0.077c0,0,0.077,0,0.077-0.077V246.091c0,0,0-0.077,0.077-0.077L317.927,245.938
		C317.927,246.014,317.927,246.014,317.927,245.938z"/>
	<path fill="none" d="M331.059,254.614h0.077h25.571h0.077c0,0,0.922-0.614,0.922-1.459s-0.922-1.459-0.922-1.459h-0.077h-25.571
		h-0.077c0,0-0.922,0.614-0.922,1.459S331.059,254.614,331.059,254.614z"/>
	<path fill="none" d="M317.927,245.938v-66.5c0,0,0-0.077-0.077-0.077H178.323c0,0-0.077,0-0.077,0.077v181.225
		c0,0,0,0.076,0.077,0.076l118.103,0.077c0,0,0.077,0,0.077-0.077V246.091c0,0,0-0.077,0.077-0.077L317.927,245.938
		C317.927,246.014,317.927,246.014,317.927,245.938z"/>
	<path fill="none" d="M248.202,367.88c-5.683,0-9.982,5.068-8.984,10.827c0.614,3.302,3.071,6.066,6.22,7.065
		c6.067,1.843,11.902-2.764,11.902-8.754C257.34,372.026,253.193,367.88,248.202,367.88z"/>
	<path fill="none" d="M343.806,393.528c-3.993,0-7.142,3.225-7.142,7.142s3.226,7.141,7.142,7.141c3.917,0,7.142-3.225,7.142-7.141
		C350.871,396.753,347.722,393.528,343.806,393.528z"/>
	<path fill="none" d="M230.771,173.524h34.632h0.077c0,0,1.305-0.922,1.305-1.997c0-1.075-1.305-1.996-1.305-1.996h-0.077h-34.632
		h-0.076c0,0-1.306,0.921-1.306,1.996c0,1.075,1.306,1.997,1.306,1.997C230.771,173.524,230.771,173.524,230.771,173.524z"/>
	<path fill="none" d="M427.506,269.896c9.062,0,16.433-7.372,16.433-16.433v-14.36v-15.435V117.314
		c0-9.061-7.372-16.433-16.433-16.433H170.03c-9.062,0-16.434,7.372-16.434,16.433v104.051v17.738v14.36
		c0,7.755,5.375,14.206,12.594,15.972V162.159c0,0,0-0.077,0.077-0.077h163.946c0,0,0.077,0,0.077,0.077v83.854l61.202,0.077
		c0,0,0,1.766,0,1.843l0.077,22.039h35.937V269.896z"/>
	<path fill="none" d="M303.567,258.454C303.567,258.454,303.567,258.531,303.567,258.454l-0.076,130.543c0,0,0,0.076,0.076,0.076
		h80.707c0,0,0.077,0,0.077-0.076V258.531c0,0,0-0.077-0.077-0.077H303.567z"/>
	<path fill="none" d="M331.135,254.614h25.571h0.077c0,0,0.922-0.614,0.922-1.459s-0.922-1.459-0.922-1.459h-0.077h-25.571h-0.077
		c0,0-0.922,0.614-0.922,1.459s0.922,1.459,0.922,1.459H331.135z"/>
	<g opacity="0.51">
		<path fill="none" d="M315.585,249.239v-66.5c0,0,0-0.077-0.077-0.077H175.981c0,0-0.077,0-0.077,0.077v181.225
			c0,0,0,0.076,0.077,0.076l118.103,0.077c0,0,0.077,0,0.077-0.077V249.393c0,0,0-0.077,0.077-0.077L315.585,249.239
			C315.585,249.316,315.585,249.316,315.585,249.239z"/>
		<path fill="none" d="M341.463,396.83c-3.993,0-7.141,3.225-7.141,7.142s3.226,7.142,7.141,7.142c3.917,0,7.141-3.225,7.141-7.142
			C348.528,400.055,345.38,396.83,341.463,396.83z"/>
		<path fill="none" d="M228.429,176.826h34.632h0.077c0,0,1.306-0.921,1.306-1.996c0-1.075-1.306-1.997-1.306-1.997h-0.077h-34.632
			h-0.077c0,0-1.306,0.921-1.306,1.997c0,1.075,1.306,1.996,1.306,1.996C228.429,176.826,228.429,176.826,228.429,176.826z"/>
		<path fill="none" d="M245.86,371.182c-5.683,0-9.982,5.068-8.984,10.828c0.615,3.302,3.072,6.067,6.22,7.065
			c6.067,1.843,11.902-2.765,11.902-8.755C254.998,375.328,250.851,371.182,245.86,371.182z"/>
		<path fill="none" d="M301.226,261.756C301.226,261.756,301.226,261.833,301.226,261.756l-0.077,130.543c0,0,0,0.077,0.077,0.077
			h80.707c0,0,0.077,0,0.077-0.077V261.833c0,0,0-0.077-0.077-0.077H301.226z"/>
		<path fill="none" d="M328.793,257.917h25.571h0.078c0,0,0.921-0.614,0.921-1.46c0-0.844-0.921-1.458-0.921-1.458h-0.078h-25.571
			h-0.077c0,0-0.922,0.614-0.922,1.458c0,0.846,0.922,1.46,0.922,1.46H328.793z"/>
		<path fill="none" d="M425.165,273.198c9.061,0,16.433-7.372,16.433-16.434v-14.36V226.97V120.616
			c0-9.062-7.372-16.433-16.433-16.433H167.688c-9.061,0-16.433,7.372-16.433,16.433v104.05v17.738v14.36
			c0,7.756,5.375,14.207,12.593,15.973V165.461c0,0,0-0.077,0.078-0.077h163.946c0,0,0.077,0,0.077,0.077v83.855l61.202,0.077
			c0,0,0,1.766,0,1.843l0.077,22.039h35.938V273.198z"/>
		<path d="M480.53,310.134h-91.457v-19.505h62.737c10.981,0,19.812-8.831,19.812-19.812v-28.489v-15.435V106.486
			c0-10.904-8.831-19.812-19.812-19.812H140.965c-10.981,0-19.812,8.831-19.812,19.812v118.18v17.738v28.489
			c0,10.981,8.831,19.812,19.812,19.812h22.807v19.428h-51.45c-9.291,0-16.894,5.068-16.894,11.365
			c0,6.296,7.525,11.365,16.894,11.365h51.45v64.811c0,0,0,0.077,0.076,0.077h130.236c0,0,0.077,0,0.077,0.077v18.813
			c0,0,0,0.077,0.077,0.077h94.835c0,0,0.077,0,0.077-0.077v-83.471l91.458-0.23c9.291,0,16.894-5.068,16.894-11.365
			C497.347,315.278,489.822,310.134,480.53,310.134z M243.095,389.074c-3.148-0.998-5.682-3.763-6.22-7.065
			c-0.998-5.759,3.302-10.828,8.984-10.828c4.991,0,9.138,4.146,9.138,9.138C254.998,386.386,249.162,390.917,243.095,389.074z
			 M294.084,249.393V364.04c0,0,0,0.077-0.077,0.077l-118.103-0.077c0,0-0.077,0-0.077-0.076V182.739c0,0,0-0.077,0.077-0.077
			h139.527c0,0,0.077,0,0.077,0.077v66.5c0,0,0,0.077-0.077,0.077L294.084,249.393C294.161,249.316,294.084,249.316,294.084,249.393
			z M227.123,174.83c0-1.075,1.306-1.997,1.306-1.997h0.077h34.632h0.077c0,0,1.306,0.921,1.306,1.997
			c0,1.075-1.306,1.996-1.306,1.996h-0.077h-34.632h-0.077C228.352,176.75,227.123,175.905,227.123,174.83z M341.463,411.113
			c-3.993,0-7.141-3.225-7.141-7.142s3.226-7.142,7.141-7.142c3.917,0,7.141,3.225,7.141,7.142
			C348.528,407.888,345.38,411.113,341.463,411.113z M382.009,392.299C382.009,392.299,382.009,392.376,382.009,392.299
			l-80.783,0.077c0,0-0.077,0-0.077-0.077V261.833c0,0,0-0.077,0.077-0.077h80.707c0,0,0.077,0,0.077,0.077V392.299L382.009,392.299
			z M327.794,256.457c0-0.844,0.922-1.458,0.922-1.458h0.077h25.571h0.078c0,0,0.921,0.614,0.921,1.458
			c0,0.846-0.921,1.46-0.921,1.46h-0.078h-25.571h-0.077C328.716,257.917,327.794,257.303,327.794,256.457z M388.997,251.159
			c0,0,0.077-1.843,0-1.843c0,0-61.202,0-61.202-0.077v-83.855c0,0,0-0.077-0.077-0.077h-163.87c0,0-0.076,0-0.076,0.077v107.199
			c-7.218-1.766-12.594-8.217-12.594-15.972v-14.359v-17.739V120.616c0-9.062,7.372-16.433,16.433-16.433h257.477
			c9.062,0,16.433,7.372,16.433,16.433V226.97v15.435v14.36c0,9.062-7.372,16.434-16.433,16.434h-36.091V251.159z"/>
	</g>
</g>
<g id="Capa_2">
	<g>
		<path fill="#F2B806" d="M296.796,333.863c-11.952,0-23.104-2.455-32.913-7.312c-5.122-2.536-17.331-9.806-28.289-18.519
			c-15.083-11.994-22.731-22.671-22.731-31.737h9.122c0,13.388,33.292,35.815,45.945,42.081c9.505,4.706,19.437,6.368,28.718,6.368
			c22.125,0,40.571-9.438,40.831-9.574l4.221,8.088c-0.421,0.22-10.493,5.423-25.036,8.472
			C309.868,333.154,303.216,333.863,296.796,333.863z"/>
	</g>
	<g>
		<path fill="#F2B806" d="M331.278,341.372c1.082-8.301,3.558-15.048,6.175-22.184c0.269-0.733,0.54-1.473,0.812-2.22
			c-8.473-1.377-14.354-5.123-21.737-11.312l5.861-6.991c7.895,6.619,12.733,9.437,22.263,9.752l6.114,0.202l-1.938,5.802
			c-0.924,2.767-1.883,5.381-2.81,7.909c-2.486,6.776-4.833,13.176-5.75,20.671l-0.336,2.751l-2.596,0.969
			c-0.879,0.328-1.664,0.46-2.356,0.46c-1.369,0-2.378-0.516-3.06-1.053"/>
	</g>
	<g>
		<path fill="#F2B806" d="M205.181,244.884c-7.689-47.406,11.543-85.388,52.769-104.208l3.789,8.299
			c-37.202,16.982-54.534,51.408-47.552,94.448L205.181,244.884z"/>
	</g>
	<g>
		<path fill="#F2B806" d="M214.629,258.195l-5.088-3.128c-4.411-2.71-7.45-7.084-10.388-11.313
			c-3.485-5.016-6.495-9.348-10.76-9.828l1.019-9.065c8.377,0.941,13.082,7.713,17.233,13.688c1.211,1.743,2.39,3.439,3.598,4.921
			c3.909-7.475,10.348-15.304,14.557-17.941l4.845,7.729c-3.471,2.175-11.371,12.486-13.337,19.204L214.629,258.195z"/>
	</g>
	<g>
		<path fill="#F2B806" d="M252.209,161.305c-2.218-6.24,1.842-11.691,5.115-16.074c-3.937,0.071-7.801-0.353-11.596-0.771
			c-2.507-0.276-4.875-0.536-7.243-0.657l0.462-9.111c2.637,0.133,5.251,0.421,7.779,0.699c6.292,0.692,12.234,1.346,17.848-0.37
			l7.658-2.34l-1.893,7.78c-0.933,3.839-3.351,7.075-5.688,10.205c-2.078,2.781-4.432,5.933-3.846,7.582L252.209,161.305z"/>
	</g>
	<g>
		<path fill="#F2B806" d="M381.231,301.771l-8.667-2.847c24.594-74.884,14.675-102.831-12.233-128.208
			c-17.443-16.45-33.385-18.86-57.516-22.507c-3.816-0.576-7.762-1.173-11.934-1.86l1.484-9.001
			c4.111,0.678,8.026,1.269,11.812,1.842c23.965,3.622,42.893,6.482,62.412,24.89c16.723,15.772,25.093,30.767,27.985,50.141
			C397.86,236.229,393.62,264.049,381.231,301.771z"/>
	</g>
	<g>
		<path fill="#F2B806" d="M312.956,163.919l-9.108-0.512l-0.001,0.015c0.042-3.111-6.434-15.42-11.992-17.346l2.986-8.621
			C304.972,140.966,313.313,157.567,312.956,163.919z"/>
	</g>
	<g>
		<path fill="#F2B806" d="M296.38,146.013l-3.33-8.494c2.308-0.905,5.048-1.697,7.949-2.536c6.486-1.875,16.288-4.709,16.535-8.563
			l9.104,0.584c-0.657,10.252-13.104,13.851-23.105,16.743C300.841,144.525,298.297,145.261,296.38,146.013z"/>
	</g>
	<g>
		<path fill="#F2B806" d="M361.972,282.05l2.975-8.624c1.119,0.385,4.521,1.559,9.297,13.805c1.722,4.415,4.23,11.67,3.26,17.092
			l-7.63-0.447c-0.828-2.947-1.493-6.208-3.678-12.143"/>
	</g>
	<g>
		<path fill="#F2B806" d="M370.982,307.817l-2.473-8.798c0.514-0.178,1.029-0.458,2.12-0.944c6.668-2.968,19.08-8.495,27.824-3.367
			l-4.616,7.87c-4.698-2.757-15.069,1.861-19.498,3.832C372.956,307.025,371.863,307.512,370.982,307.817z"/>
	</g>
	<g>
		<path fill="#F2B806" d="M232.48,287.882c-1.085-0.887-3.085-2.103-5.203-3.39c-6.609-4.018-14.833-9.018-16.427-16.003l8.894-2.03
			c0.735,3.224,7.958,7.615,12.272,10.238c2.5,1.52,4.66,2.833,6.237,4.122L232.48,287.882z"/>
	</g>
	<g>
		<path fill="#F2B806" d="M206.51,294.572l-0.676-9.098c-1.086,0.081-1.748,0.661-1.894,0.858c0.163-0.219,0.754-1.226,1.542-4.979
			c0.12-0.573,0.227-1.12,0.33-1.648c0.553-2.836,1.076-5.516,2.896-8.72c0.558-0.982,1.184-1.81,1.735-2.541
			c0.612-0.81,1.189-1.574,1.277-2.053l8.973,1.649c-0.479,2.604-1.86,4.433-2.971,5.903c-0.421,0.557-0.818,1.084-1.083,1.548
			c-1.083,1.907-1.397,3.519-1.874,5.959c-0.111,0.568-0.226,1.158-0.355,1.775C213.667,286.774,212.118,294.155,206.51,294.572z"/>
	</g>
</g>
</svg>
