<?xml version="1.0" encoding="utf-8"?>
<!-- Generator: Adobe Illustrator 15.0.0, SVG Export Plug-In . SVG Version: 6.00 Build 0)  -->
<!DOCTYPE svg PUBLIC "-//W3C//DTD SVG 1.1//EN" "http://www.w3.org/Graphics/SVG/1.1/DTD/svg11.dtd">
<svg version="1.1" id="Capa_1" xmlns="http://www.w3.org/2000/svg" xmlns:xlink="http://www.w3.org/1999/xlink" x="0px" y="0px"
	 width="1071.107px" height="771.077px" viewBox="218.341 141.833 1071.107 771.077"
	 enable-background="new 218.341 141.833 1071.107 771.077" xml:space="preserve">
<g id="Capa_1_1_">
	<path opacity="0.51" enable-background="new    " d="M905.727,375.188v-86.032H561.613v86.032l-129.367-14.021
		c0,99.618,29.252,191.636,115.768,191.636c13.102,0,27.185-1.788,42.27-5.559l0.421-0.315
		c25.845,57.812,66.86,99.021,114.289,111.113v118.614h-57.354v28.677h-57.354v57.354H877.05v-57.354h-57.354v-28.677h-57.354
		V658.042c47.43-12.092,88.443-53.303,114.288-111.113l0.428,0.315c15.087,3.771,29.168,5.559,42.271,5.559
		c86.516,0,115.768-92.018,115.768-191.636L905.727,375.188z M577.708,520.69c-10.494,2.277-20.707,3.428-30.058,3.428
		c-75.182,0-81.153-87.217-85.977-134.281l99.947,14.021c0,41.351,6.729,80.382,18.38,115.123L577.708,520.69z M791.873,543.332
		l-55.09-28.964l-55.091,28.964l10.521-61.343l-44.569-43.447l61.596-8.952l27.549-55.812l27.549,55.812l61.596,8.952
		l-44.567,43.447L791.873,543.332z M919.698,524.125c-9.353,0-19.565-1.15-30.06-3.428l-2.285-1.71
		c11.65-34.741,18.381-73.766,18.381-115.123l99.945-14.021C1000.844,436.908,994.879,524.125,919.698,524.125z"/>
</g>
<g id="Capa_2">
	<g>
		<path fill="#F2B806" d="M1088.569,241.47c-10.187,5.984-20.322,12.965-30.126,19.715c-11.707,8.061-23.812,16.396-36.573,23.491
			l-9.719-17.479c11.926-6.631,23.63-14.69,34.948-22.484c10.096-6.951,20.532-14.138,31.338-20.487l0.773-0.455l0.842-0.31
			c8.027-2.949,12.09,0.74,13.803,3.2c1.36,1.957,3.948,7.184-1.405,13.446"/>
	</g>
	<g>
		<path fill="#F2B806" d="M1206.017,402.085l28.964,9.187l-28.759,9.811c-13.937,4.754-30.939,5.827-48.54,5.827
			c-7.31,0-14.719-0.186-22.059-0.368c-14.434-0.361-28.071-0.701-39.688,0.368l-1.832-19.916
			c12.781-1.176,26.982-0.821,42.021-0.446c21.229,0.53,43.118,1.076,59.202-3.073"/>
	</g>
	<g>
		<path fill="#F2B806" d="M1115.812,605.212c-14.258,0-28.836-11.007-41.998-20.945c-7.627-5.758-15.513-11.713-21.385-13.967
			l7.168-18.672c8.505,3.265,17.133,9.78,26.27,16.677c10.781,8.142,25.538,19.288,32.258,16.453l7.793,18.419
			C1122.585,604.588,1119.207,605.212,1115.812,605.212z"/>
	</g>
	<g>
		<path fill="#F2B806" d="M385.847,255.975c-13.646-13.763-26.113-32.988-35.105-54.133l18.405-7.826
			c7.907,18.594,19.17,36.045,30.902,47.877L385.847,255.975z"/>
	</g>
	<g>
		<path fill="#F2B806" d="M377.636,390.383c-27.975-9.815-80.129-10.773-108.229-8.32l-2.53-19.822
			c7.804-1.313,16.118-2.349,26.164-3.254l0.179,1.985c29.065-0.368,66.703,2,91.039,10.539L377.636,390.383z"/>
	</g>
	<g>
		<path fill="#F2B806" d="M290.426,578.203c0.01-0.014,0.249-0.331,0.525-0.906l-18.027-8.66
			c4.544-9.459,46.101-39.642,47.868-40.922c46.431-33.644,58.969-33.727,63.089-33.754l0.133,20
			c-3.416,0.022-18.148,6.005-49.456,28.484C310.391,559.796,292.727,575.168,290.426,578.203z"/>
	</g>
</g>
</svg>
