<?xml version="1.0" encoding="utf-8"?>
<!-- Generator: Adobe Illustrator 15.0.0, SVG Export Plug-In . SVG Version: 6.00 Build 0)  -->
<!DOCTYPE svg PUBLIC "-//W3C//DTD SVG 1.1//EN" "http://www.w3.org/Graphics/SVG/1.1/DTD/svg11.dtd">
<svg version="1.1" xmlns="http://www.w3.org/2000/svg" xmlns:xlink="http://www.w3.org/1999/xlink" x="0px" y="0px"
	 width="621.062px" height="966.097px" viewBox="161.925 398.949 621.062 966.097"
	 enable-background="new 161.925 398.949 621.062 966.097" xml:space="preserve">
<g id="Capa_1">
	<g>
		<path d="M640.005,1245.17c0,0-144.92-20.14-158.325,97.832c0,0-3.371-111.242-165.234-97.832c0,0,16.825-70.801-114.68-70.801
			l178.694-87.524l16.825-286.694l13.533,33.746c0,0,70.856-16.903,138.275,0l13.532-37.037l20.124,293.295l168.632,84.215
			C751.382,1174.369,633.41,1164.309,640.005,1245.17z M410.819,931.656l10.062,20.302l37.128,3.292L410.819,931.656z
			 M501.905,955.25l37.127-3.292l10.062-20.302L501.905,955.25z M555.734,978.845l-74.059,23.595l-77.626-23.595v77.553
			l40.448,40.543h67.463l43.773-40.543V978.845z M444.497,1026.051c0,0,30.336-14.239,60.795-3.31
			C505.292,1022.741,473.481,1020.145,444.497,1026.051z"/>
	</g>
	<g opacity="0.51">
		<path d="M580.879,522.939c-1.181-1.579-2.865-2.704-4.773-3.191l-96.905-24.705c-1.398-0.357-2.865-0.357-4.263,0l-96.905,24.708
			c-1.908,0.488-3.592,1.613-4.773,3.191l-49.842,66.563c-2.34,3.123-2.296,7.429,0.103,10.506l146.747,188.126
			c1.635,2.098,4.142,3.322,6.799,3.322c2.657,0,5.165-1.225,6.8-3.322l146.746-188.126c2.398-3.077,2.443-7.383,0.103-10.506
			L580.879,522.939z M607.921,587.314l-58.726,7.464l27.032-50.417L607.921,587.314z M531.448,588.797l-37.2-49.686l68.201-7.452
			L531.448,588.797z M514.154,596.413h-74.17l37.085-49.53L514.154,596.413z M477.069,511.214l33.76,8.676l-33.76,3.63
			l-33.527-3.688L477.069,511.214z M459.891,539.111l-37.2,49.686l-31-57.138L459.891,539.111z M377.847,544.366l27.032,50.416
			l-58.729-7.467L377.847,544.366z M355.919,608.573l59.484,6.501l34.301,120.938L355.919,608.573z M433.903,615.059h86.333
			l-43.167,149.304L433.903,615.059z M505.189,736.013l34.3-120.938l59.485-6.501L505.189,736.013z"/>
	</g>
</g>
<g id="Capa_2">
	<g>
		<path fill="#F2B806" d="M696.998,495.573c-1.907,1.025-3.4,1.827-4.25,2.271c-5.578,2.916-11.256,6.259-16.746,9.492
			c-7.646,4.502-15.552,9.158-23.65,12.958l-6.32-13.467c7.469-3.505,14.732-7.782,22.422-12.311
			c5.649-3.327,11.492-6.767,17.403-9.857c0.819-0.429,2.262-1.203,4.104-2.192c4.871-2.616,12.232-6.57,18.613-9.798
			c3.648-1.847,6.449-3.189,8.562-4.106c2.924-1.27,9.006-3.91,12.778,1.423c0.665,0.941,3.69,5.898-2.073,11.139"/>
	</g>
	<g>
		<path fill="#F2B806" d="M667.297,598.681l-4.967-14.022c13.711-4.858,48.119-10.215,63.189-4.391l-5.363,13.876
			C710.908,590.571,681.22,593.75,667.297,598.681z"/>
	</g>
	<g>
		<path fill="#F2B806" d="M735.152,734.221l-9.109-4.347c-12.781-6.099-24.033-17.652-34.916-28.827
			c-12.527-12.862-25.48-26.162-38.711-28.397l2.479-14.668c18.021,3.045,32.697,18.114,46.889,32.687
			c8.771,9.004,17.802,18.277,26.914,23.753l8.273-0.077l0.014,1.203c0.037,2.747,0.074,5.588-0.377,8.687L735.152,734.221z"/>
	</g>
	<g>
		<path fill="#F2B806" d="M292.21,492.796c-12.514-9.095-23.479-21.207-34.085-32.919c-5.46-6.031-10.618-11.728-15.862-16.898
			l10.445-10.593c5.544,5.466,11.085,11.587,16.445,17.506c10.096,11.151,20.537,22.682,31.803,30.871L292.21,492.796z"/>
	</g>
	<g>
		<path fill="#F2B806" d="M278.6,569.711c-15.031-5.032-44.055-12.571-69.565-6.512l-3.438-14.474
			c29.104-6.915,61.19,1.342,77.727,6.879L278.6,569.711z"/>
	</g>
	<g>
		<path fill="#F2B806" d="M215.598,697.771c-1.129-6.838,2.812-14.915,12.047-24.69c15.558-16.466,48.728-39.249,65.268-37.478
			l-1.586,14.792c-6.947-0.735-30.234,11.856-47.48,27.627c-11.139,10.187-13.582,16.139-13.559,17.421
			c0-0.002-0.001-0.036-0.011-0.095L215.598,697.771z"/>
	</g>
</g>
</svg>
